<svg width="1024" height="1024" viewBox="0 0 1024 1024" fill="none" xmlns="http://www.w3.org/2000/svg">
<path d="M652.885 794.485C656.167 792.856 659.526 792.593 662.96 793.696C666.363 794.895 668.878 797.136 670.507 800.418C672.168 803.765 672.431 807.123 671.296 810.493C670.129 813.96 667.904 816.507 664.622 818.136C661.275 819.797 657.869 820.044 654.402 818.877C650.968 817.774 648.42 815.549 646.759 812.203C645.13 808.92 644.9 805.546 646.067 802.08C647.266 798.677 649.539 796.146 652.885 794.485Z" fill="white"/>
<path d="M708.567 772.088C707.349 770.768 706.113 769.27 704.858 767.592L739.548 735.581C735.39 731.499 730.846 729.436 725.916 729.39C720.933 729.393 716.515 731.173 712.66 734.73C709.545 737.605 707.616 740.705 706.872 744.031C706.124 747.458 706.449 750.776 707.845 753.985L700.083 761.147C697.396 755.904 696.576 750.354 697.625 744.499C698.722 738.696 701.858 733.407 707.033 728.632C711.151 724.832 715.7 722.345 720.679 721.172C725.605 720.048 730.551 720.323 735.517 721.997C740.532 723.723 745.111 726.831 749.252 731.319C753.393 735.807 756.126 740.569 757.449 745.604C758.772 750.64 758.651 755.542 757.087 760.309C755.519 765.178 752.623 769.561 748.399 773.459C744.28 777.259 739.835 779.699 735.063 780.779C730.239 781.907 725.518 781.717 720.901 780.21C716.284 778.703 712.173 775.995 708.567 772.088ZM716.889 766.169C719.52 769.02 722.368 770.888 725.434 771.774C728.549 772.713 731.649 772.736 734.736 771.843C737.77 770.998 740.554 769.407 743.088 767.068C746.784 763.658 748.805 759.544 749.151 754.728C749.546 749.964 747.926 745.349 744.292 740.881L716.889 766.169Z" fill="#8AA1BF"/>
<path d="M787.96 680.427C792.905 684.009 796.494 688.118 798.727 692.751C801.017 697.427 801.916 702.248 801.423 707.214C800.888 712.239 798.977 717.02 795.689 721.558C791.432 727.434 786.508 731.231 780.917 732.947C775.284 734.722 769.494 734.386 763.548 731.941L769.744 723.388C773.243 724.681 776.7 724.746 780.116 723.583C783.489 722.478 786.44 720.181 788.969 716.69C792.257 712.152 793.342 707.348 792.223 702.279C791.163 697.252 787.782 692.674 782.08 688.543C776.32 684.37 770.857 682.542 765.692 683.058C760.527 683.575 756.301 686.102 753.013 690.64C750.484 694.131 749.191 697.63 749.134 701.138C749.077 704.645 750.245 707.931 752.638 710.996L746.442 719.549C742.482 714.728 740.41 709.323 740.224 703.333C740.097 697.385 742.12 691.532 746.293 685.772C749.581 681.234 753.529 677.928 758.136 675.854C762.702 673.838 767.563 673.19 772.72 673.91C777.876 674.629 782.956 676.802 787.96 680.427Z" fill="#8AA1BF"/>
<path d="M831.607 661.6C828.656 668.151 824.267 672.556 818.442 674.818C812.682 677.108 806.068 676.571 798.6 673.207L766.863 658.909L770.847 650.066L801.307 663.789C806.678 666.209 811.378 666.71 815.404 665.293C819.496 663.906 822.59 660.887 824.685 656.236C826.81 651.52 827.033 647.089 825.354 642.945C823.646 638.866 819.975 635.557 814.342 633.019L784.57 619.606L788.598 610.665L842.443 634.923L838.415 643.864L830.751 640.412C832.705 643.42 833.757 646.77 833.906 650.462C834.026 654.219 833.259 657.932 831.607 661.6Z" fill="#8AA1BF"/>
<path d="M822.701 612.552C820.947 612.167 819.075 611.646 817.086 610.989L827.201 564.883C821.456 563.917 816.549 564.826 812.48 567.612C808.397 570.467 805.793 574.456 804.669 579.579C803.761 583.719 803.954 587.366 805.248 590.518C806.597 593.757 808.763 596.291 811.745 598.122L809.481 608.438C804.276 605.678 800.427 601.597 797.934 596.196C795.512 590.81 795.055 584.678 796.564 577.801C797.765 572.327 800.071 567.684 803.481 563.872C806.877 560.13 811.089 557.524 816.12 556.053C821.22 554.597 826.753 554.524 832.718 555.833C838.683 557.141 843.649 559.481 847.617 562.853C851.585 566.224 854.292 570.312 855.739 575.116C857.241 580.006 857.376 585.258 856.144 590.872C854.943 596.346 852.695 600.891 849.401 604.508C846.091 608.195 842.112 610.742 837.464 612.15C832.815 613.557 827.894 613.691 822.701 612.552ZM826.135 602.934C829.925 603.766 833.33 603.667 836.351 602.638C839.442 601.624 841.997 599.868 844.016 597.369C846.02 594.94 847.392 592.041 848.131 588.673C849.209 583.76 848.511 579.231 846.037 575.084C843.633 570.952 839.663 568.095 834.126 566.513L826.135 602.934Z" fill="#8AA1BF"/>
<path d="M873.655 544.815C873.813 542.953 874.591 541.433 875.989 540.254C877.387 539.075 879.017 538.564 880.878 538.722C882.739 538.88 884.26 539.658 885.439 541.056C886.618 542.454 887.129 544.084 886.971 545.945C886.819 547.735 886.047 549.183 884.655 550.291C883.257 551.47 881.627 551.981 879.766 551.823C877.905 551.665 876.384 550.887 875.205 549.489C874.02 548.162 873.503 546.604 873.655 544.815ZM863.697 548.728L804.852 543.732L805.681 533.96L864.527 538.956L863.697 548.728Z" fill="#8AA1BF"/>
<path d="M854.118 510.424C858.011 512.119 861.047 514.538 863.227 517.683C865.407 520.899 866.514 524.807 866.549 529.404L856.42 529.482L856.4 526.896C856.316 515.904 850.311 510.453 838.384 510.545L806.27 510.791L806.195 500.984L865.251 500.532L865.326 510.338L854.118 510.424Z" fill="#8AA1BF"/>
<path d="M838.153 490.122C836.38 490.413 834.448 490.62 832.357 490.744L824.721 444.164C819.025 445.389 814.801 448.047 812.05 452.138C809.311 456.3 808.365 460.969 809.214 466.145C809.899 470.328 811.426 473.645 813.794 476.096C816.244 478.607 819.192 480.162 822.64 480.762L824.348 491.184C818.491 490.542 813.407 488.172 809.095 484.074C804.854 479.964 802.164 474.435 801.025 467.487C800.118 461.957 800.545 456.791 802.306 451.988C804.079 447.257 807.03 443.278 811.161 440.053C815.363 436.816 820.477 434.703 826.503 433.716C832.53 432.728 838.009 433.067 842.942 434.734C847.875 436.4 851.901 439.199 855.02 443.128C858.222 447.117 860.288 451.948 861.218 457.62C862.125 463.15 861.716 468.204 859.991 472.782C858.278 477.431 855.521 481.268 851.722 484.294C847.922 487.319 843.399 489.262 838.153 490.122ZM837.79 479.916C841.619 479.289 844.746 477.939 847.173 475.866C849.671 473.782 851.396 471.206 852.349 468.138C853.314 465.14 853.517 461.94 852.96 458.537C852.146 453.574 849.824 449.623 845.993 446.683C842.233 443.732 837.488 442.544 831.758 443.12L837.79 479.916Z" fill="#8AA1BF"/>
<path d="M823.909 372.157C827.763 372.721 831.424 374.365 834.895 377.088C838.458 379.852 841.177 383.606 843.051 388.35C844.977 393.229 845.55 398.101 844.768 402.967C844.013 407.9 841.945 412.347 838.566 416.308C835.254 420.243 830.791 423.318 825.178 425.535C819.631 427.726 814.238 428.543 808.997 427.986C803.756 427.43 799.141 425.622 795.152 422.563C791.189 419.57 788.245 415.635 786.318 410.757C784.471 406.079 783.87 401.527 784.516 397.101C785.256 392.715 786.827 388.966 789.228 385.855L753.044 400.146L749.441 391.024L830.43 359.038L834.033 368.159L823.909 372.157ZM821.496 416.214C825.639 414.577 828.917 412.317 831.332 409.432C833.746 406.548 835.187 403.352 835.656 399.845C836.151 396.405 835.726 392.981 834.38 389.573C833.06 386.232 830.998 383.455 828.192 381.241C825.48 379.068 822.211 377.733 818.384 377.236C814.65 376.78 810.745 377.356 806.669 378.966C802.526 380.603 799.214 382.876 796.733 385.787C794.346 388.739 792.871 391.947 792.309 395.414C791.84 398.921 792.265 402.344 793.585 405.686C794.931 409.094 796.96 411.884 799.672 414.057C802.477 416.271 805.747 417.606 809.481 418.062C813.281 418.493 817.286 417.876 821.496 416.214Z" fill="#8AA1BF"/>
<path d="M769.659 368.601L780.772 345.02L754.991 345.363L749.469 336.614L784.438 337.098L799.467 305.183L805.449 314.66L794.403 337.945L820.003 337.717L825.467 346.374L790.646 345.924L775.584 377.988L769.659 368.601Z" fill="#8AA1BF"/>
<path d="M774.196 315.89C772.869 317.101 771.364 318.329 769.68 319.575L737.849 284.721C733.745 288.858 731.658 293.391 731.587 298.321C731.565 303.303 733.322 307.731 736.859 311.604C739.718 314.734 742.808 316.679 746.13 317.44C749.553 318.205 752.873 317.898 756.088 316.518L763.21 324.317C757.953 326.977 752.4 327.768 746.55 326.689C740.752 325.562 735.48 322.399 730.732 317.2C726.953 313.062 724.49 308.5 723.342 303.515C722.244 298.584 722.544 293.639 724.244 288.681C725.996 283.675 729.127 279.113 733.636 274.995C738.146 270.877 742.922 268.169 747.964 266.872C753.007 265.575 757.908 265.721 762.667 267.31C767.528 268.903 771.896 271.822 775.772 276.066C779.551 280.204 781.968 284.661 783.023 289.439C784.126 294.269 783.912 298.989 782.381 303.598C780.85 308.207 778.121 312.304 774.196 315.89ZM768.319 307.537C771.184 304.921 773.067 302.082 773.969 299.021C774.923 295.911 774.962 292.811 774.085 289.72C773.256 286.682 771.679 283.89 769.354 281.343C765.962 277.63 761.859 275.588 757.045 275.217C752.284 274.798 747.66 276.393 743.173 280.004L768.319 307.537Z" fill="#8AA1BF"/>
<path d="M734.534 209.975L689.171 275.565L676.762 266.982L722.126 201.393L734.534 209.975Z" fill="white"/>
<path d="M688.08 236.544C687.172 238.339 686.201 239.941 685.167 241.35L646.218 221.652C644.497 225.693 644.254 229.435 645.492 232.878C646.729 236.322 649.111 238.936 652.637 240.719C657.638 243.248 662.282 242.9 666.571 239.674L681.092 247.018C676.959 251.369 671.87 254.109 665.825 255.238C659.811 256.303 653.631 255.23 647.284 252.02C642.155 249.426 638.106 245.97 635.138 241.651C632.266 237.3 630.73 232.457 630.529 227.123C630.393 221.821 631.703 216.445 634.459 210.995C637.247 205.482 640.817 201.208 645.169 198.176C649.52 195.144 654.283 193.527 659.457 193.325C664.631 193.124 669.847 194.353 675.104 197.012C680.169 199.573 684.137 202.949 687.01 207.139C689.947 211.362 691.5 216.012 691.669 221.089C691.903 226.199 690.707 231.35 688.08 236.544ZM675.741 226.318C677.557 222.567 677.782 219.017 676.416 215.67C675.146 212.29 672.716 209.692 669.126 207.877C665.728 206.158 662.324 205.805 658.913 206.818C655.535 207.766 652.681 209.986 650.352 213.478L675.741 226.318Z" fill="white"/>
<path d="M565.235 191.274C566.755 185.434 569.25 180.552 572.721 176.63C576.261 172.726 580.364 170.081 585.03 168.697C589.696 167.313 594.497 167.263 599.434 168.548C603.189 169.525 606.552 171.291 609.525 173.846C612.516 176.332 614.667 179.193 615.977 182.43L623.115 155L637.925 158.854L617.842 236.032L603.032 232.178L605.257 223.626C602.708 226.006 599.573 227.64 595.852 228.528C592.132 229.416 588.117 229.299 583.806 228.177C578.939 226.911 574.814 224.501 571.433 220.949C568.052 217.396 565.767 213.053 564.579 207.918C563.479 202.732 563.697 197.184 565.235 191.274ZM610.654 203.316C611.577 199.77 611.668 196.564 610.929 193.699C610.208 190.765 608.837 188.329 606.817 186.393C604.815 184.387 602.458 183.032 599.746 182.326C597.034 181.62 594.359 181.63 591.721 182.354C589.083 183.078 586.699 184.536 584.569 186.729C582.528 188.87 581.054 191.679 580.15 195.155C579.245 198.632 579.144 201.872 579.847 204.876C580.638 207.828 582 210.299 583.932 212.286C585.934 214.292 588.256 215.639 590.899 216.326C593.61 217.032 596.32 217.032 599.028 216.326C601.754 215.55 604.138 214.092 606.18 211.951C608.24 209.74 609.731 206.862 610.654 203.316Z" fill="white"/>
<path d="M493.023 187.487C493.211 181.455 494.563 176.142 497.078 171.548C499.665 166.957 503.045 163.468 507.216 161.082C511.46 158.699 516.131 157.587 521.229 157.746C525.681 157.885 529.531 158.903 532.778 160.802C536.098 162.702 538.72 165.048 540.645 167.84L540.911 159.33L556.099 159.804L554.237 219.479L539.049 219.005L539.321 210.28C537.295 213.02 534.529 215.27 531.024 217.029C527.593 218.719 523.651 219.495 519.199 219.356C514.172 219.199 509.617 217.763 505.532 215.048C501.52 212.335 498.366 208.607 496.07 203.863C493.848 199.049 492.832 193.591 493.023 187.487ZM539.98 189.168C540.094 185.505 539.474 182.359 538.118 179.729C536.765 177.027 534.889 174.956 532.49 173.516C530.093 172.003 527.494 171.203 524.694 171.116C521.893 171.029 519.286 171.63 516.874 172.921C514.462 174.211 512.46 176.161 510.869 178.771C509.352 181.311 508.538 184.377 508.426 187.967C508.314 191.558 508.933 194.74 510.285 197.514C511.71 200.218 513.585 202.325 515.91 203.835C518.306 205.347 520.869 206.146 523.598 206.231C526.399 206.319 529.041 205.718 531.525 204.43C534.011 203.07 536.013 201.12 537.53 198.579C539.049 195.967 539.866 192.83 539.98 189.168Z" fill="white"/>
<path d="M436.445 175.468C437.832 172.42 440.013 169.693 442.987 167.289C446.019 164.801 449.686 163.141 453.989 162.31C458.998 161.343 463.751 161.705 468.249 163.397C472.817 165.076 476.708 167.983 479.922 172.118C483.192 176.17 485.407 181.193 486.565 187.189C487.723 193.185 487.553 198.743 486.054 203.862C484.612 208.897 482.09 213.079 478.49 216.409C474.959 219.725 470.69 221.867 465.681 222.834C461.378 223.666 457.399 223.52 453.743 222.397C450.157 221.26 447.083 219.549 444.519 217.264L451.53 253.557L436.716 256.419L419.996 169.865L434.81 167.003L436.445 175.468ZM471.434 190.112C470.753 186.585 469.426 183.695 467.454 181.442C465.539 179.104 463.253 177.497 460.595 176.62C458.009 175.729 455.34 175.55 452.589 176.081C449.908 176.599 447.505 177.795 445.379 179.669C443.31 181.459 441.787 183.802 440.81 186.699C439.903 189.581 439.79 192.786 440.472 196.313C441.153 199.84 442.451 202.772 444.366 205.11C446.352 207.434 448.645 209.076 451.245 210.037C453.903 210.914 456.572 211.094 459.252 210.576C462.003 210.044 464.407 208.849 466.462 206.988C468.588 205.114 470.104 202.735 471.011 199.853C471.988 196.957 472.129 193.71 471.434 190.112Z" fill="white"/>
<path d="M366.972 229.746C363.722 231.437 360.369 231.764 356.914 230.727C353.489 229.593 350.932 227.401 349.24 224.15C347.516 220.836 347.189 217.483 348.259 214.092C349.36 210.604 351.536 208.014 354.786 206.323C358.1 204.598 361.502 204.287 364.99 205.387C368.445 206.425 371.035 208.6 372.759 211.914C374.45 215.165 374.745 218.534 373.645 222.023C372.511 225.447 370.286 228.021 366.972 229.746Z" fill="white"/>
<path d="M312.866 252.192C314.099 253.498 315.352 254.983 316.625 256.646L282.297 289.044C286.5 293.079 291.067 295.092 295.997 295.082C300.98 295.023 305.378 293.193 309.192 289.594C312.275 286.684 314.17 283.563 314.876 280.229C315.585 276.793 315.224 273.479 313.791 270.287L321.472 263.038C324.218 268.25 325.1 273.79 324.117 279.657C323.085 285.472 320.008 290.796 314.888 295.629C310.812 299.475 306.292 302.012 301.326 303.241C296.413 304.42 291.464 304.201 286.479 302.583C281.445 300.912 276.832 297.856 272.641 293.415C268.449 288.974 265.664 284.243 264.284 279.222C262.905 274.202 262.971 269.299 264.481 264.515C265.995 259.628 268.842 255.213 273.022 251.268C277.097 247.422 281.515 244.932 286.274 243.799C291.086 242.617 295.808 242.754 300.442 244.209C305.076 245.665 309.217 248.326 312.866 252.192ZM304.611 258.205C301.949 255.383 299.079 253.547 296.004 252.695C292.879 251.792 289.778 251.804 286.702 252.731C283.678 253.609 280.912 255.232 278.404 257.599C274.746 261.051 272.772 265.186 272.48 270.006C272.138 274.774 273.81 279.371 277.493 283.797L304.611 258.205Z" fill="#8AA1BF"/>
<path d="M234.474 344.727C229.49 341.199 225.856 337.13 223.573 332.522C221.231 327.871 220.279 323.06 220.717 318.089C221.196 313.059 223.055 308.257 226.292 303.683C230.485 297.76 235.367 293.91 240.938 292.132C246.551 290.296 252.344 290.567 258.318 292.947L252.216 301.567C248.703 300.313 245.245 300.286 241.843 301.487C238.482 302.628 235.556 304.959 233.066 308.477C229.828 313.051 228.796 317.866 229.971 322.923C231.086 327.937 234.518 332.479 240.265 336.546C246.07 340.656 251.553 342.424 256.712 341.85C261.871 341.277 266.069 338.703 269.307 334.129C271.797 330.61 273.051 327.097 273.07 323.589C273.088 320.081 271.884 316.808 269.457 313.77L275.559 305.15C279.571 309.927 281.703 315.309 281.955 321.296C282.147 327.242 280.189 333.117 276.08 338.923C272.842 343.497 268.931 346.846 264.347 348.971C259.804 351.036 254.95 351.738 249.786 351.075C244.621 350.413 239.518 348.297 234.474 344.727Z" fill="#8AA1BF"/>
<path d="M191.061 364.06C193.937 357.476 198.275 353.021 204.075 350.694C209.808 348.338 216.428 348.8 223.933 352.079L255.83 366.016L251.947 374.904L221.333 361.528C215.935 359.169 211.23 358.721 207.22 360.183C203.144 361.617 200.085 364.671 198.042 369.345C195.971 374.085 195.798 378.518 197.524 382.643C199.278 386.703 202.987 389.97 208.648 392.443L238.571 405.518L234.644 414.504L180.527 390.859L184.454 381.872L192.157 385.238C190.168 382.252 189.079 378.914 188.888 375.224C188.725 371.468 189.45 367.747 191.061 364.06Z" fill="#8AA1BF"/>
<path d="M200.511 413.031C202.27 413.395 204.148 413.894 206.144 414.527L196.579 460.75C202.336 461.648 207.232 460.68 211.266 457.847C215.316 454.943 217.872 450.923 218.934 445.787C219.793 441.636 219.557 437.992 218.225 434.855C216.838 431.633 214.642 429.125 211.639 427.329L213.779 416.987C219.017 419.685 222.914 423.72 225.471 429.091C227.957 434.448 228.487 440.574 227.06 447.469C225.925 452.956 223.674 457.626 220.309 461.479C216.959 465.261 212.777 467.917 207.765 469.448C202.682 470.964 197.151 471.103 191.171 469.866C185.191 468.628 180.197 466.348 176.189 463.024C172.181 459.7 169.425 455.645 167.921 450.858C166.362 445.986 166.164 440.736 167.329 435.108C168.465 429.62 170.658 425.049 173.909 421.393C177.175 417.666 181.123 415.072 185.754 413.609C190.386 412.146 195.305 411.954 200.511 413.031ZM197.192 422.689C193.393 421.903 189.989 422.042 186.98 423.107C183.902 424.158 181.368 425.944 179.378 428.467C177.403 430.92 176.066 433.835 175.368 437.212C174.348 442.137 175.1 446.658 177.623 450.775C180.076 454.877 184.08 457.687 189.636 459.203L197.192 422.689Z" fill="#8AA1BF"/>
<path d="M150.349 481.379C150.213 483.242 149.454 484.772 148.07 485.968C146.687 487.164 145.063 487.694 143.2 487.559C141.337 487.423 139.808 486.664 138.611 485.28C137.415 483.896 136.885 482.273 137.021 480.41C137.151 478.619 137.905 477.161 139.284 476.036C140.667 474.84 142.291 474.31 144.154 474.445C146.017 474.581 147.546 475.341 148.742 476.724C149.944 478.036 150.479 479.588 150.349 481.379ZM160.259 477.345L219.16 481.629L218.449 491.41L159.548 487.127L160.259 477.345Z" fill="#8AA1BF"/>
<path d="M170.302 515.525C166.389 513.878 163.324 511.496 161.106 508.378C158.887 505.188 157.732 501.295 157.641 496.698L167.769 496.497L167.82 499.083C168.038 510.073 174.109 515.449 186.033 515.213L218.142 514.576L218.337 524.381L159.291 525.552L159.097 515.747L170.302 515.525Z" fill="#8AA1BF"/>
<path d="M186.53 535.603C188.299 535.292 190.229 535.063 192.318 534.915L200.481 581.406C206.163 580.117 210.356 577.411 213.061 573.289C215.753 569.096 216.646 564.417 215.739 559.251C215.006 555.076 213.442 551.776 211.047 549.352C208.568 546.869 205.602 545.348 202.148 544.787L200.322 534.385C206.186 534.96 211.296 537.272 215.655 541.321C219.942 545.383 222.694 550.881 223.912 557.816C224.881 563.336 224.512 568.506 222.806 573.328C221.087 578.08 218.181 582.091 214.087 585.363C209.922 588.648 204.832 590.818 198.817 591.874C192.802 592.93 187.319 592.652 182.368 591.042C177.417 589.431 173.359 586.678 170.195 582.784C166.948 578.832 164.828 574.025 163.834 568.364C162.865 562.844 163.217 557.786 164.89 553.188C166.55 548.52 169.263 544.652 173.028 541.584C176.793 538.516 181.294 536.522 186.53 535.603ZM187.008 545.804C183.187 546.475 180.075 547.86 177.672 549.96C175.198 552.072 173.502 554.667 172.583 557.746C171.652 560.754 171.485 563.957 172.082 567.354C172.951 572.307 175.318 576.232 179.182 579.127C182.975 582.036 187.733 583.17 193.456 582.53L187.008 545.804Z" fill="#8AA1BF"/>
<path d="M202.056 653.38C198.197 652.856 194.518 651.251 191.019 648.565C187.427 645.839 184.669 642.113 182.745 637.389C180.767 632.532 180.143 627.666 180.874 622.792C181.577 617.851 183.597 613.382 186.934 609.386C190.205 605.416 194.635 602.294 200.225 600.018C205.748 597.769 211.132 596.895 216.379 597.396C221.625 597.898 226.259 599.657 230.28 602.674C234.274 605.624 237.26 609.528 239.238 614.386C241.135 619.043 241.783 623.589 241.183 628.022C240.49 632.416 238.959 636.181 236.59 639.317L272.622 624.646L276.321 633.728L195.673 666.567L191.975 657.484L202.056 653.38ZM204.005 609.3C199.879 610.98 196.625 613.275 194.241 616.185C191.858 619.095 190.45 622.305 190.018 625.817C189.559 629.262 190.02 632.681 191.402 636.075C192.757 639.402 194.849 642.157 197.677 644.341C200.412 646.485 203.696 647.786 207.528 648.243C211.266 648.66 215.164 648.042 219.223 646.389C223.349 644.709 226.637 642.401 229.087 639.464C231.443 636.487 232.884 633.263 233.41 629.791C233.841 626.28 233.38 622.86 232.025 619.533C230.643 616.14 228.585 613.371 225.85 611.226C223.021 609.042 219.738 607.742 216 607.325C212.195 606.935 208.197 607.593 204.005 609.3Z" fill="#8AA1BF"/>
<path d="M256.353 656.361L245.545 680.084L271.319 679.409L276.954 688.086L241.981 688.052L227.364 720.158L221.261 710.758L232.006 687.333L206.412 687.891L200.836 679.304L235.66 679.307L250.308 647.051L256.353 656.361Z" fill="#8AA1BF"/>
<path d="M252.47 709.088C253.782 707.862 255.273 706.616 256.942 705.351L289.173 739.837C293.228 735.653 295.263 731.097 295.277 726.166C295.242 721.184 293.434 716.777 289.853 712.945C286.959 709.848 283.847 707.938 280.516 707.215C277.084 706.489 273.768 706.835 270.569 708.252L263.358 700.535C268.584 697.815 274.128 696.96 279.99 697.972C285.8 699.032 291.108 702.135 295.916 707.279C299.742 711.373 302.258 715.906 303.462 720.877C304.617 725.796 304.374 730.744 302.731 735.721C301.036 740.746 297.958 745.344 293.496 749.514C289.035 753.684 284.29 756.446 279.263 757.801C274.236 759.156 269.333 759.067 264.556 757.533C259.678 755.995 255.276 753.127 251.352 748.928C247.525 744.833 245.057 740.404 243.947 735.639C242.789 730.822 242.948 726.1 244.426 721.473C245.904 716.847 248.586 712.718 252.47 709.088ZM258.442 717.372C255.608 720.021 253.757 722.882 252.891 725.953C251.972 729.074 251.969 732.174 252.881 735.255C253.745 738.283 255.354 741.057 257.708 743.577C261.142 747.251 265.269 749.246 270.087 749.561C274.853 749.926 279.458 748.277 283.902 744.615L258.442 717.372Z" fill="#8AA1BF"/>
<path d="M293.195 814.471L337.924 748.447L350.415 756.91L305.686 822.933L293.195 814.471Z" fill="white"/>
<path d="M339.435 787.486C340.323 785.681 341.277 784.069 342.296 782.648L381.459 801.916C383.136 797.857 383.337 794.112 382.062 790.682C380.786 787.252 378.376 784.665 374.83 782.921C369.802 780.447 365.162 780.846 360.909 784.119L346.308 776.935C350.392 772.539 355.451 769.743 361.484 768.548C367.485 767.417 373.677 768.421 380.059 771.561C385.216 774.098 389.303 777.51 392.319 781.796C395.238 786.115 396.828 790.941 397.087 796.273C397.282 801.573 396.031 806.963 393.335 812.443C390.608 817.987 387.085 822.299 382.767 825.379C378.449 828.459 373.704 830.128 368.533 830.387C363.362 830.645 358.133 829.474 352.847 826.873C347.754 824.367 343.748 821.035 340.829 816.877C337.846 812.687 336.242 808.055 336.017 802.979C335.727 797.872 336.866 792.708 339.435 787.486ZM351.887 797.576C350.112 801.346 349.926 804.898 351.329 808.231C352.636 811.596 355.094 814.167 358.704 815.943C362.121 817.624 365.529 817.939 368.928 816.889C372.296 815.904 375.125 813.652 377.415 810.135L351.887 797.576Z" fill="white"/>
<path d="M462.854 831.306C461.408 837.166 458.975 842.079 455.555 846.045C452.065 849.994 447.996 852.69 443.348 854.133C438.7 855.576 433.899 855.687 428.947 854.465C425.18 853.536 421.794 851.813 418.789 849.296C415.767 846.848 413.58 844.015 412.228 840.795L405.44 868.313L390.582 864.648L409.683 787.221L424.541 790.886L422.424 799.466C424.943 797.053 428.057 795.38 431.766 794.444C435.475 793.509 439.491 793.575 443.816 794.642C448.699 795.847 452.853 798.204 456.28 801.713C459.706 805.222 462.046 809.536 463.299 814.655C464.465 819.827 464.317 825.377 462.854 831.306ZM417.286 819.843C416.409 823.401 416.358 826.607 417.133 829.462C417.892 832.387 419.293 834.805 421.338 836.715C423.365 838.696 425.739 840.021 428.46 840.692C431.18 841.363 433.855 841.32 436.484 840.563C439.112 839.805 441.478 838.317 443.579 836.097C445.594 833.93 447.031 831.103 447.892 827.615C448.752 824.128 448.812 820.886 448.07 817.892C447.242 814.949 445.849 812.497 443.892 810.534C441.864 808.554 439.525 807.236 436.874 806.583C434.154 805.911 431.444 805.946 428.746 806.686C426.03 807.496 423.665 808.985 421.65 811.152C419.618 813.389 418.164 816.286 417.286 819.843Z" fill="white"/>
<path d="M535.041 834.282C534.919 840.315 533.626 845.643 531.161 850.264C528.625 854.884 525.284 858.409 521.139 860.841C516.922 863.271 512.264 864.434 507.164 864.332C502.71 864.242 498.849 863.266 495.581 861.403C492.242 859.539 489.594 857.222 487.637 854.452L487.466 862.964L472.273 862.658L473.478 802.966L488.67 803.273L488.494 812C490.49 809.238 493.231 806.958 496.716 805.16C500.128 803.432 504.061 802.613 508.515 802.703C513.543 802.804 518.114 804.19 522.228 806.86C526.27 809.529 529.465 813.222 531.814 817.94C534.088 822.729 535.164 828.176 535.041 834.282ZM488.068 833.118C487.994 836.782 488.649 839.921 490.034 842.536C491.417 845.222 493.316 847.273 495.73 848.687C498.144 850.173 500.751 850.944 503.552 851.001C506.354 851.057 508.953 850.427 511.351 849.11C513.749 847.793 515.729 845.821 517.291 843.193C518.78 840.637 519.561 837.562 519.633 833.971C519.706 830.379 519.051 827.204 517.67 824.446C516.215 821.757 514.317 819.671 511.975 818.187C509.562 816.701 506.99 815.93 504.261 815.875C501.459 815.819 498.824 816.448 496.354 817.764C493.883 819.151 491.903 821.123 490.414 823.68C488.924 826.309 488.142 829.455 488.068 833.118Z" fill="white"/>
<path d="M591.788 845.626C590.437 848.691 588.29 851.443 585.344 853.883C582.342 856.407 578.695 858.111 574.402 858.994C569.406 860.021 564.649 859.716 560.131 858.078C555.543 856.454 551.617 853.594 548.354 849.497C545.035 845.486 542.761 840.489 541.531 834.507C540.3 828.525 540.404 822.966 541.842 817.83C543.223 812.778 545.694 808.565 549.255 805.193C552.745 801.834 556.989 799.641 561.985 798.614C566.278 797.731 570.259 797.829 573.928 798.908C577.527 800.002 580.622 801.676 583.213 803.93L575.767 767.724L590.545 764.685L608.303 851.032L593.524 854.071L591.788 845.626ZM556.626 831.403C557.349 834.921 558.71 837.796 560.709 840.025C562.652 842.339 564.957 843.919 567.625 844.764C570.222 845.624 572.893 845.771 575.638 845.207C578.312 844.657 580.701 843.432 582.804 841.533C584.851 839.718 586.346 837.357 587.288 834.449C588.16 831.556 588.235 828.35 587.511 824.831C586.787 821.313 585.454 818.396 583.511 816.082C581.498 813.782 579.185 812.167 576.574 811.237C573.906 810.392 571.235 810.244 568.561 810.794C565.816 811.359 563.428 812.584 561.395 814.469C559.292 816.368 557.804 818.764 556.932 821.658C555.99 824.565 555.887 827.814 556.626 831.403Z" fill="white"/>
<path d="M554.075 434.203C559.673 439.801 568.749 439.801 574.347 434.203C579.944 428.605 579.944 419.53 574.347 413.932C568.749 408.334 559.673 408.334 554.075 413.932C548.478 419.53 548.478 428.605 554.075 434.203Z" fill="#D9B777"/>
<path d="M522.588 589.082C528.181 594.675 537.249 594.675 542.842 589.082C548.435 583.489 548.435 574.421 542.842 568.828C537.249 563.236 528.181 563.236 522.588 568.828C516.995 574.421 516.995 583.489 522.588 589.082Z" fill="#D9B777"/>
<path d="M584.978 465.161C590.575 470.758 599.651 470.758 605.249 465.161C610.847 459.563 610.847 450.487 605.249 444.889C599.651 439.292 590.575 439.292 584.978 444.889C579.38 450.487 579.38 459.563 584.978 465.161Z" fill="#D9B777"/>
<path d="M523.066 465.338C528.654 470.926 537.714 470.926 543.302 465.338C548.89 459.75 548.89 450.69 543.302 445.102C537.714 439.514 528.654 439.514 523.066 445.102C517.477 450.69 517.477 459.75 523.066 465.338Z" fill="#D9B777"/>
<path d="M491.963 496.358C497.556 501.951 506.624 501.951 512.217 496.358C517.81 490.766 517.81 481.698 512.217 476.105C506.624 470.512 497.556 470.512 491.963 476.105C486.37 481.698 486.37 490.766 491.963 496.358Z" fill="#D9B777"/>
<path d="M460.948 527.41C466.536 532.998 475.596 532.998 481.184 527.41C486.773 521.822 486.773 512.762 481.184 507.174C475.596 501.586 466.536 501.586 460.948 507.174C455.36 512.762 455.36 521.822 460.948 527.41Z" fill="#D9B777"/>
<path d="M430.238 496.689C435.822 502.272 444.874 502.272 450.457 496.689C456.04 491.105 456.04 482.053 450.457 476.47C444.874 470.887 435.822 470.887 430.238 476.47C424.655 482.053 424.655 491.105 430.238 496.689Z" fill="#D9B777"/>
<path d="M615.796 495.902C621.384 501.49 630.444 501.49 636.032 495.902C641.62 490.314 641.62 481.254 636.032 475.666C630.444 470.078 621.384 470.078 615.796 475.666C610.208 481.254 610.208 490.314 615.796 495.902Z" fill="#D9B777"/>
<path d="M492.293 434.501C497.876 440.084 506.928 440.084 512.512 434.501C518.095 428.918 518.095 419.866 512.512 414.283C506.928 408.699 497.876 408.699 492.293 414.283C486.71 419.866 486.71 428.918 492.293 434.501Z" fill="#D9B777"/>
<path d="M522.849 527.288C528.427 532.866 537.471 532.866 543.05 527.288C548.628 521.709 548.628 512.665 543.05 507.087C537.471 501.508 528.427 501.508 522.849 507.087C517.27 512.665 517.27 521.709 522.849 527.288Z" fill="#D9B777"/>
<path d="M523.356 403.404C528.935 408.982 537.979 408.982 543.558 403.404C549.136 397.826 549.136 388.781 543.558 383.203C537.979 377.625 528.935 377.625 523.357 383.203C517.778 388.781 517.778 397.826 523.356 403.404Z" fill="#D9B777"/>
<path d="M553.678 558.067C559.251 563.641 568.288 563.641 573.861 558.067C579.435 552.494 579.435 543.457 573.861 537.884C568.288 532.31 559.251 532.31 553.678 537.884C548.104 543.457 548.104 552.494 553.678 558.067Z" fill="#D9B777"/>
<path d="M553.937 496.132C559.505 501.7 568.534 501.7 574.103 496.132C579.671 490.563 579.671 481.534 574.103 475.966C568.534 470.397 559.505 470.397 553.937 475.966C548.368 481.534 548.368 490.563 553.937 496.132Z" fill="#D9B777"/>
<path d="M584.683 526.878C590.251 532.447 599.28 532.447 604.849 526.878C610.417 521.31 610.417 512.281 604.849 506.712C599.28 501.144 590.251 501.144 584.683 506.712C579.114 512.281 579.114 521.31 584.683 526.878Z" fill="#D9B777"/>
<path d="M491.832 558.269C497.396 563.833 506.417 563.833 511.98 558.269C517.544 552.706 517.544 543.685 511.98 538.121C506.417 532.557 497.396 532.557 491.832 538.121C486.268 543.685 486.268 552.706 491.832 558.269Z" fill="#D9B777"/>
<path d="M461.147 465.594C466.716 471.163 475.745 471.163 481.313 465.594C486.882 460.025 486.882 450.997 481.313 445.428C475.745 439.86 466.716 439.86 461.147 445.428C455.579 450.997 455.579 460.025 461.147 465.594Z" fill="#D9B777"/>
<path d="M617.77 432.299C622.38 436.909 629.854 436.909 634.464 432.299C639.074 427.689 639.074 420.215 634.464 415.605C629.854 410.995 622.38 410.995 617.77 415.605C613.16 420.215 613.16 427.689 617.77 432.299Z" fill="#D9B777"/>
<path d="M586.825 401.474C591.435 406.084 598.909 406.084 603.519 401.474C608.129 396.865 608.129 389.39 603.519 384.781C598.909 380.171 591.435 380.171 586.825 384.781C582.215 389.39 582.215 396.865 586.825 401.474Z" fill="#D9B777"/>
<path d="M556.077 370.601C560.677 375.201 568.135 375.201 572.736 370.601C577.336 366.001 577.336 358.542 572.736 353.942C568.135 349.342 560.677 349.342 556.077 353.942C551.477 358.542 551.477 366.001 556.077 370.601Z" fill="#D9B777"/>
<path d="M648.542 463.101C653.142 467.702 660.6 467.702 665.201 463.101C669.801 458.501 669.801 451.043 665.201 446.443C660.6 441.842 653.142 441.842 648.542 446.443C643.941 451.043 643.941 458.501 648.542 463.101Z" fill="#D9B777"/>
<path d="M432.753 432.466C437.092 436.805 444.127 436.805 448.465 432.466C452.804 428.128 452.804 421.093 448.465 416.754C444.127 412.416 437.092 412.416 432.753 416.754C428.415 421.093 428.415 428.128 432.753 432.466Z" fill="#D9B777"/>
<path d="M587.703 587.497C592.041 591.835 599.076 591.835 603.415 587.497C607.753 583.158 607.753 576.123 603.415 571.785C599.076 567.446 592.041 567.446 587.703 571.785C583.364 576.123 583.364 583.158 587.703 587.497Z" fill="#D9B777"/>
<path d="M401.674 463.546C405.998 467.87 413.009 467.87 417.334 463.546C421.658 459.222 421.658 452.211 417.334 447.887C413.009 443.563 405.998 443.563 401.674 447.887C397.35 452.211 397.35 459.222 401.674 463.546Z" fill="#D9B777"/>
<path d="M463.871 401.399C468.19 405.718 475.193 405.718 479.512 401.399C483.832 397.08 483.832 390.077 479.512 385.757C475.193 381.438 468.19 381.438 463.871 385.757C459.551 390.077 459.551 397.08 463.871 401.399Z" fill="#D9B777"/>
<path d="M495.03 370.346C499.334 374.651 506.314 374.651 510.619 370.346C514.924 366.041 514.924 359.062 510.619 354.757C506.314 350.452 499.334 350.452 495.03 354.757C490.725 359.062 490.725 366.041 495.03 370.346Z" fill="#D9B777"/>
<path d="M649.919 525.293C654.229 529.603 661.216 529.603 665.526 525.293C669.836 520.984 669.836 513.996 665.526 509.687C661.216 505.377 654.229 505.377 649.919 509.687C645.61 513.996 645.61 520.984 649.919 525.293Z" fill="#D9B777"/>
<path d="M618.855 556.282C623.155 560.582 630.126 560.582 634.426 556.282C638.726 551.982 638.726 545.01 634.426 540.71C630.126 536.41 623.155 536.41 618.855 540.71C614.555 545.01 614.555 551.982 618.855 556.282Z" fill="#D9B777"/>
<path d="M556.688 618.509C560.983 622.804 567.947 622.804 572.242 618.509C576.537 614.214 576.537 607.25 572.242 602.955C567.947 598.66 560.983 598.66 556.688 602.955C552.393 607.25 552.393 614.214 556.688 618.509Z" fill="#D9B777"/>
<path d="M462.706 587.293C466.948 591.535 473.825 591.535 478.067 587.293C482.309 583.051 482.309 576.174 478.067 571.932C473.825 567.69 466.948 567.69 462.706 571.932C458.464 576.174 458.464 583.051 462.706 587.293Z" fill="#D9B777"/>
<path d="M431.848 556.387C436.065 560.605 442.903 560.605 447.121 556.387C451.339 552.17 451.339 545.331 447.121 541.114C442.903 536.896 436.065 536.896 431.848 541.114C427.63 545.331 427.63 552.17 431.848 556.387Z" fill="#D9B777"/>
<path d="M493.535 618.102C497.753 622.32 504.591 622.32 508.809 618.102C513.026 613.884 513.026 607.046 508.809 602.829C504.591 598.611 497.753 598.611 493.535 602.829C489.317 607.046 489.317 613.884 493.535 618.102Z" fill="#D9B777"/>
<path d="M370.249 618.081C374.472 622.304 381.318 622.304 385.54 618.081C389.763 613.859 389.763 607.013 385.54 602.79C381.318 598.568 374.472 598.568 370.249 602.79C366.026 607.013 366.026 613.859 370.249 618.081Z" fill="#D9B777"/>
<path d="M401.075 525.633C405.288 529.846 412.118 529.846 416.331 525.633C420.544 521.42 420.544 514.59 416.331 510.377C412.118 506.164 405.288 506.164 401.075 510.377C396.862 514.59 396.862 521.42 401.075 525.633Z" fill="#D9B777"/>
<path d="M401.093 587.335C405.296 591.538 412.11 591.538 416.314 587.335C420.517 583.132 420.517 576.317 416.314 572.114C412.11 567.911 405.296 567.911 401.093 572.114C396.89 576.317 396.89 583.132 401.093 587.335Z" fill="#D9B777"/>
<path d="M401.154 648.849C405.362 653.057 412.185 653.057 416.393 648.849C420.601 644.641 420.601 637.818 416.393 633.61C412.185 629.402 405.362 629.402 401.154 633.61C396.946 637.818 396.946 644.641 401.154 648.849Z" fill="#D9B777"/>
<path d="M351.761 668.969C355.964 673.172 362.778 673.172 366.982 668.969C371.185 664.766 371.185 657.951 366.982 653.748C362.778 649.545 355.964 649.545 351.761 653.748C347.557 657.951 347.557 664.766 351.761 668.969Z" fill="#D9B777"/>
<path d="M370.379 494.797C374.577 498.995 381.384 498.996 385.582 494.797C389.78 490.599 389.78 483.792 385.582 479.594C381.384 475.396 374.577 475.396 370.379 479.594C366.18 483.792 366.18 490.599 370.379 494.797Z" fill="#D9B777"/>
<path d="M462.672 649.015C466.87 653.213 473.677 653.213 477.875 649.015C482.073 644.817 482.073 638.01 477.875 633.812C473.677 629.613 466.87 629.613 462.672 633.812C458.473 638.01 458.473 644.817 462.672 649.015Z" fill="#D9B777"/>
<path d="M370.24 556.519C374.429 560.708 381.22 560.708 385.408 556.52C389.597 552.331 389.597 545.54 385.408 541.351C381.22 537.163 374.429 537.163 370.24 541.351C366.051 545.54 366.051 552.331 370.24 556.519Z" fill="#D9B777"/>
<path d="M431.918 618.016C436.097 622.195 442.872 622.195 447.051 618.016C451.23 613.837 451.23 607.062 447.051 602.883C442.872 598.704 436.097 598.704 431.918 602.883C427.739 607.062 427.739 613.837 431.918 618.016Z" fill="#D9B777"/>
<path d="M372.324 431.198C375.869 434.742 381.616 434.743 385.16 431.198C388.705 427.653 388.705 421.906 385.16 418.362C381.616 414.817 375.869 414.817 372.324 418.362C368.78 421.906 368.78 427.653 372.324 431.198Z" fill="#D9B777"/>
<path d="M434.432 369.149C437.966 372.684 443.698 372.684 447.233 369.149C450.767 365.614 450.767 359.883 447.233 356.348C443.698 352.813 437.966 352.813 434.432 356.348C430.897 359.883 430.897 365.614 434.432 369.149Z" fill="#D9B777"/>
<path d="M650.984 585.645C654.509 589.171 660.225 589.171 663.75 585.645C667.275 582.12 667.275 576.405 663.75 572.88C660.225 569.354 654.509 569.354 650.984 572.88C647.459 576.405 647.459 582.12 650.984 585.645Z" fill="#D9B777"/>
<path d="M650.71 399.276C654.22 402.786 659.912 402.786 663.423 399.276C666.934 395.765 666.934 390.073 663.423 386.562C659.912 383.052 654.22 383.052 650.71 386.562C647.199 390.073 647.199 395.765 650.71 399.276Z" fill="#D9B777"/>
<path d="M681.52 430C685.041 433.52 690.748 433.52 694.269 430C697.789 426.48 697.789 420.772 694.269 417.252C690.748 413.731 685.041 413.731 681.52 417.252C678 420.772 678 426.48 681.52 430Z" fill="#D9B777"/>
<path d="M589.22 337.684C592.736 341.2 598.436 341.2 601.951 337.684C605.467 334.169 605.467 328.469 601.951 324.953C598.436 321.438 592.736 321.438 589.22 324.953C585.705 328.469 585.705 334.169 589.22 337.684Z" fill="#D9B777"/>
<path d="M588.953 647.715C592.478 651.24 598.194 651.24 601.719 647.715C605.244 644.19 605.244 638.475 601.719 634.949C598.194 631.424 592.478 631.424 588.953 634.949C585.428 638.475 585.428 644.19 588.953 647.715Z" fill="#D9B777"/>
<path d="M619.997 616.789C623.498 620.29 629.174 620.29 632.675 616.789C636.176 613.288 636.176 607.612 632.675 604.111C629.174 600.61 623.498 600.61 619.997 604.111C616.496 607.612 616.496 613.288 619.997 616.789Z" fill="#D9B777"/>
<path d="M682.193 554.637C685.689 558.133 691.358 558.133 694.854 554.637C698.35 551.14 698.35 545.472 694.854 541.976C691.358 538.48 685.689 538.48 682.193 541.976C678.697 545.472 678.697 551.14 682.193 554.637Z" fill="#D9B777"/>
<path d="M527.361 338.039C530.857 341.536 536.526 341.536 540.022 338.039C543.518 334.543 543.518 328.875 540.022 325.379C536.526 321.883 530.857 321.883 527.361 325.379C523.865 328.875 523.865 334.543 527.361 338.039Z" fill="#D9B777"/>
<path d="M682.184 492.893C685.685 496.394 691.362 496.394 694.863 492.893C698.364 489.392 698.364 483.716 694.863 480.215C691.362 476.714 685.685 476.714 682.184 480.215C678.683 483.716 678.683 489.392 682.184 492.893Z" fill="#D9B777"/>
<path d="M465.503 337.896C468.994 341.388 474.654 341.388 478.146 337.896C481.637 334.405 481.637 328.745 478.146 325.253C474.654 321.762 468.994 321.762 465.503 325.253C462.011 328.745 462.011 334.405 465.503 337.896Z" fill="#D9B777"/>
<path d="M526.871 648.364C530.357 651.85 536.01 651.85 539.496 648.364C542.983 644.877 542.983 639.225 539.496 635.738C536.01 632.252 530.357 632.252 526.871 635.738C523.384 639.225 523.384 644.877 526.871 648.364Z" fill="#D9B777"/>
<path d="M619.95 368.471C623.431 371.952 629.076 371.952 632.558 368.471C636.04 364.989 636.04 359.344 632.558 355.863C629.076 352.381 623.431 352.381 619.95 355.863C616.468 359.344 616.468 364.989 619.95 368.471Z" fill="#D9B777"/>
<path d="M403.404 400.021C406.881 403.498 412.518 403.498 415.995 400.021C419.471 396.544 419.471 390.907 415.995 387.431C412.518 383.954 406.881 383.954 403.404 387.431C399.927 390.907 399.927 396.544 403.404 400.021Z" fill="#D9B777"/>
</svg>
