<svg width="1024" height="1024" viewBox="0 0 1024 1024" fill="none" xmlns="http://www.w3.org/2000/svg">
<path d="M477.105 441.536H496.302V522.178C496.302 525.494 496.84 527.783 497.914 529.044C498.988 530.305 500.6 530.936 502.748 530.936C505.831 530.936 508.844 530.258 511.786 528.904L514.378 543.547C511.856 544.714 508.89 545.649 505.481 546.349C502.071 547.05 498.918 547.4 496.022 547.4C490.044 547.4 485.396 545.789 482.08 542.566C478.764 539.343 477.105 534.789 477.105 528.904V441.536Z" fill="white"/>
<path d="M429.1 547.678C421.253 547.678 414.271 545.903 408.152 542.354C402.033 538.804 397.386 534.133 394.21 528.341C391.033 522.503 389.445 516.104 389.445 509.144C389.445 501.998 391.033 495.459 394.21 489.527C397.386 483.548 402.033 478.76 408.152 475.164C414.271 471.567 421.3 469.769 429.24 469.769C435.219 469.769 440.684 470.82 445.635 472.922C450.633 475.024 454.766 477.873 458.036 481.469C461.352 485.019 463.898 489.106 465.673 493.73C467.494 498.354 468.405 503.235 468.405 508.373C468.405 511.036 468.265 513.184 467.985 514.819H409.833C410.3 520.517 412.449 525.095 416.279 528.551C420.109 531.961 424.616 533.666 429.801 533.666C433.678 533.666 437.298 532.732 440.661 530.863C444.07 528.948 446.382 526.473 447.597 523.437L464.061 528.061C461.259 533.946 456.751 538.687 450.539 542.283C444.374 545.88 437.228 547.678 429.1 547.678ZM409.413 502.628H448.718C448.157 496.977 446.032 492.422 442.342 488.966C438.699 485.463 434.238 483.711 428.96 483.711C423.776 483.711 419.338 485.463 415.648 488.966C411.959 492.469 409.88 497.023 409.413 502.628Z" fill="white"/>
<path d="M299.977 508.656C299.977 501.509 301.401 494.97 304.25 489.038C307.1 483.106 311.093 478.412 316.231 474.956C321.416 471.499 327.207 469.771 333.606 469.771C338.978 469.771 343.882 471.102 348.319 473.765C352.803 476.38 356.353 479.884 358.969 484.274V441.536H378.236V524.77C378.236 526.825 378.563 528.297 379.217 529.184C379.871 530.025 381.015 530.515 382.65 530.655V546.279C379.333 546.933 376.601 547.26 374.452 547.26C371.043 547.26 368.194 546.419 365.905 544.738C363.663 543.01 362.402 540.744 362.122 537.942L361.841 533.248C359.132 537.872 355.419 541.445 350.701 543.967C345.984 546.443 340.986 547.68 335.708 547.68C328.889 547.68 322.747 545.952 317.282 542.496C311.817 539.039 307.567 534.345 304.531 528.413C301.495 522.435 299.977 515.849 299.977 508.656ZM358.969 518.745V500.809C357.381 496.652 354.718 493.172 350.982 490.37C347.292 487.567 343.508 486.166 339.632 486.166C333.98 486.166 329.286 488.454 325.549 493.032C321.813 497.563 319.944 502.934 319.944 509.146C319.944 515.405 321.906 520.683 325.829 524.98C329.8 529.231 334.774 531.356 340.753 531.356C344.489 531.356 348.132 530.165 351.682 527.783C355.279 525.354 357.708 522.341 358.969 518.745Z" fill="white"/>
<path d="M219.895 524.067C219.895 516.781 222.884 510.896 228.862 506.412C234.841 501.881 242.618 499.616 252.193 499.616C259.386 499.616 265.411 500.62 270.269 502.628V498.635C270.269 493.824 268.844 490.134 265.995 487.565C263.193 484.996 259.012 483.711 253.454 483.711C249.437 483.711 245.607 484.412 241.964 485.813C238.321 487.168 234.327 489.293 229.983 492.189L223.748 479.578C233.79 473.039 244.37 469.769 255.486 469.769C266.229 469.769 274.566 472.455 280.498 477.826C286.477 483.198 289.466 490.858 289.466 500.807V524.768C289.466 526.823 289.816 528.294 290.517 529.182C291.218 530.023 292.409 530.513 294.09 530.653V546.277C290.867 546.931 288.135 547.258 285.893 547.258C282.203 547.258 279.33 546.464 277.275 544.876C275.267 543.241 274.029 541.069 273.562 538.36L273.142 534.507C269.919 538.664 265.855 541.91 260.951 544.245C256.093 546.534 251.119 547.678 246.028 547.678C238.508 547.678 232.272 545.436 227.321 540.952C222.37 536.468 219.895 530.84 219.895 524.067ZM266.696 527.921C269.078 525.539 270.269 523.343 270.269 521.335V513.698C265.365 511.69 260.344 510.685 255.206 510.685C250.161 510.685 246.051 511.783 242.875 513.978C239.699 516.127 238.111 518.953 238.111 522.456C238.111 525.492 239.325 528.131 241.754 530.373C244.183 532.568 247.429 533.666 251.492 533.666C254.342 533.666 257.121 533.152 259.83 532.124C262.586 531.05 264.874 529.649 266.696 527.921Z" fill="white"/>
<path d="M156.197 533.105V576.824H137V471.1H153.815V483.992C156.664 479.508 160.307 476.028 164.745 473.552C169.182 471.03 174.18 469.769 179.738 469.769C186.324 469.769 192.326 471.521 197.744 475.024C203.162 478.527 207.366 483.244 210.355 489.176C213.391 495.062 214.909 501.507 214.909 508.513C214.909 515.753 213.508 522.362 210.705 528.341C207.903 534.32 203.979 539.037 198.935 542.494C193.89 545.95 188.262 547.678 182.05 547.678C176.305 547.678 171.19 546.394 166.706 543.825C162.269 541.256 158.766 537.683 156.197 533.105ZM195.221 508.513C195.221 502.208 193.236 496.906 189.266 492.609C185.296 488.312 180.345 486.164 174.413 486.164C170.676 486.164 167.01 487.378 163.413 489.807C159.864 492.189 157.458 495.178 156.197 498.775V516.43C157.925 520.728 160.588 524.301 164.184 527.15C167.781 529.952 171.587 531.354 175.604 531.354C181.256 531.354 185.927 529.088 189.617 524.558C193.353 520.027 195.221 514.679 195.221 508.513Z" fill="white"/>
<path d="M850.077 655.298C843.024 655.298 836.602 653.523 830.81 649.973C825.065 646.423 820.604 641.682 817.428 635.75C814.252 629.772 812.664 623.279 812.664 616.273C812.664 609.36 814.252 602.985 817.428 597.146C820.604 591.261 825.065 586.59 830.81 583.134C836.555 579.63 842.931 577.879 849.937 577.879C857.037 577.879 863.436 579.654 869.134 583.204C874.879 586.707 879.293 591.378 882.376 597.216C885.458 603.008 887 609.313 887 616.133C887 618.281 886.953 619.589 886.86 620.056H822.823C823.43 628.043 826.396 634.676 831.721 639.954C837.046 645.232 843.328 647.871 850.568 647.871C855.472 647.871 860.073 646.633 864.37 644.158C868.667 641.636 871.703 638.366 873.478 634.349L881.955 636.661C879.62 642.173 875.51 646.657 869.624 650.113C863.786 653.569 857.27 655.298 850.077 655.298ZM822.543 612.98H877.822C877.214 604.946 874.272 598.36 868.994 593.223C863.763 588.038 857.457 585.446 850.077 585.446C842.697 585.446 836.368 588.038 831.09 593.223C825.859 598.407 823.01 604.993 822.543 612.98Z" fill="#8AA1BF"/>
<path d="M775.041 655.298C767.942 655.298 761.496 653.523 755.704 649.973C749.959 646.423 745.475 641.682 742.252 635.75C739.076 629.818 737.488 623.326 737.488 616.273C737.488 609.22 739.053 602.774 742.182 596.936C745.312 591.097 749.749 586.473 755.494 583.064C761.239 579.607 767.708 577.879 774.901 577.879C781.861 577.879 788.003 579.467 793.328 582.643C798.652 585.819 802.669 590.163 805.378 595.675L795.85 598.687C793.795 594.857 790.852 591.868 787.022 589.719C783.239 587.524 779.058 586.426 774.481 586.426C766.821 586.426 760.375 589.276 755.144 594.974C749.959 600.672 747.367 607.772 747.367 616.273C747.367 624.68 750.053 631.874 755.424 637.852C760.796 643.784 767.195 646.75 774.621 646.75C779.385 646.75 783.916 645.489 788.213 642.967C792.557 640.398 795.313 637.385 796.48 633.929L806.079 636.801C803.977 642.219 800.054 646.657 794.309 650.113C788.61 653.569 782.188 655.298 775.041 655.298Z" fill="#8AA1BF"/>
<path d="M724.721 653.896H714.912V612.139C714.912 603.358 713.604 596.936 710.988 592.872C708.419 588.809 704.379 586.777 698.868 586.777C693.029 586.777 687.471 588.832 682.193 592.942C676.915 597.006 673.389 602.074 671.614 608.146V653.896H661.875V579.14H670.773V596.095C673.809 590.584 678.176 586.17 683.874 582.853C689.62 579.537 695.808 577.879 702.441 577.879C706.504 577.879 709.984 578.626 712.88 580.121C715.823 581.569 718.135 583.741 719.816 586.637C721.544 589.533 722.782 592.896 723.53 596.726C724.324 600.556 724.721 605.016 724.721 610.108V653.896Z" fill="#8AA1BF"/>
<path d="M612.757 655.298C605.704 655.298 599.282 653.523 593.49 649.973C587.745 646.423 583.284 641.682 580.108 635.75C576.932 629.772 575.344 623.279 575.344 616.273C575.344 609.36 576.932 602.985 580.108 597.146C583.284 591.261 587.745 586.59 593.49 583.134C599.235 579.63 605.611 577.879 612.617 577.879C619.716 577.879 626.115 579.654 631.814 583.204C637.559 586.707 641.973 591.378 645.055 597.216C648.138 603.008 649.679 609.313 649.679 616.133C649.679 618.281 649.633 619.589 649.539 620.056H585.503C586.11 628.043 589.076 634.676 594.401 639.954C599.725 645.232 606.008 647.871 613.247 647.871C618.152 647.871 622.752 646.633 627.049 644.158C631.347 641.636 634.383 638.366 636.158 634.349L644.635 636.661C642.3 642.173 638.189 646.657 632.304 650.113C626.466 653.569 619.95 655.298 612.757 655.298ZM585.222 612.98H640.501C639.894 604.946 636.952 598.36 631.674 593.223C626.442 588.038 620.137 585.446 612.757 585.446C605.377 585.446 599.048 588.038 593.77 593.223C588.539 598.407 585.69 604.993 585.222 612.98Z" fill="#8AA1BF"/>
<path d="M552.156 653.894V579.137H561.895V653.894H552.156Z" fill="#8AA1BF"/>
<path d="M542 587.761C535.414 587.995 529.669 589.84 524.764 593.296C519.86 596.706 516.427 601.4 514.465 607.379V653.9H504.727V579.144H513.905V597.08C516.474 591.848 519.883 587.621 524.134 584.398C528.384 581.129 532.915 579.284 537.726 578.863C539.594 578.723 541.019 578.723 542 578.863V587.761Z" fill="#8AA1BF"/>
<path d="M455.608 655.298C448.555 655.298 442.133 653.523 436.341 649.973C430.596 646.423 426.136 641.682 422.96 635.75C419.783 629.772 418.195 623.279 418.195 616.273C418.195 609.36 419.783 602.985 422.96 597.146C426.136 591.261 430.596 586.59 436.341 583.134C442.086 579.63 448.462 577.879 455.468 577.879C462.568 577.879 468.967 579.654 474.665 583.204C480.41 586.707 484.824 591.378 487.907 597.216C490.99 603.008 492.531 609.313 492.531 616.133C492.531 618.281 492.484 619.589 492.391 620.056H428.354C428.961 628.043 431.927 634.676 437.252 639.954C442.577 645.232 448.859 647.871 456.099 647.871C461.003 647.871 465.604 646.633 469.901 644.158C474.198 641.636 477.234 638.366 479.009 634.349L487.487 636.661C485.151 642.173 481.041 646.657 475.156 650.113C469.317 653.569 462.801 655.298 455.608 655.298ZM428.074 612.98H483.353C482.746 604.946 479.803 598.36 474.525 593.223C469.294 588.038 462.988 585.446 455.608 585.446C448.229 585.446 441.9 588.038 436.622 593.223C431.39 598.407 428.541 604.993 428.074 612.98Z" fill="#8AA1BF"/>
<path d="M347.426 638.413V684.444H337.688V579.14H346.445V593.643C349.528 588.879 353.545 585.072 358.496 582.223C363.447 579.327 368.702 577.879 374.26 577.879C380.892 577.879 386.941 579.724 392.406 583.414C397.917 587.104 402.168 591.915 405.157 597.847C408.193 603.732 409.711 609.991 409.711 616.623C409.711 623.63 408.287 630.075 405.437 635.96C402.635 641.846 398.618 646.54 393.387 650.043C388.202 653.546 382.34 655.298 375.801 655.298C369.823 655.298 364.358 653.756 359.407 650.674C354.502 647.544 350.509 643.457 347.426 638.413ZM399.762 616.623C399.762 608.496 397.053 601.443 391.635 595.465C386.217 589.439 379.655 586.426 371.948 586.426C368.678 586.426 365.245 587.267 361.649 588.949C358.052 590.584 354.899 592.872 352.19 595.815C349.481 598.757 347.893 601.817 347.426 604.993V627.903C349.668 633.368 353.148 637.876 357.865 641.425C362.583 644.975 367.651 646.75 373.069 646.75C378.253 646.75 382.924 645.302 387.081 642.406C391.238 639.464 394.391 635.727 396.54 631.196C398.688 626.619 399.762 621.761 399.762 616.623Z" fill="#8AA1BF"/>
<path d="M270.496 579.137L292.496 608.423L293.617 610.595L294.738 608.423L316.597 579.137H327.597L299.222 616.761L327.597 653.894H316.597L294.738 624.748L293.617 622.786L292.496 624.748L270.636 653.894H259.637L287.872 616.761L259.637 579.137H270.496Z" fill="#8AA1BF"/>
<path d="M222.085 655.298C215.032 655.298 208.61 653.523 202.818 649.973C197.073 646.423 192.612 641.682 189.436 635.75C186.26 629.772 184.672 623.279 184.672 616.273C184.672 609.36 186.26 602.985 189.436 597.146C192.612 591.261 197.073 586.59 202.818 583.134C208.563 579.63 214.939 577.879 221.945 577.879C229.044 577.879 235.443 579.654 241.142 583.204C246.887 586.707 251.301 591.378 254.384 597.216C257.466 603.008 259.008 609.313 259.008 616.133C259.008 618.281 258.961 619.589 258.867 620.056H194.831C195.438 628.043 198.404 634.676 203.729 639.954C209.053 645.232 215.336 647.871 222.575 647.871C227.48 647.871 232.08 646.633 236.378 644.158C240.675 641.636 243.711 638.366 245.486 634.349L253.963 636.661C251.628 642.173 247.517 646.657 241.632 650.113C235.794 653.569 229.278 655.298 222.085 655.298ZM194.551 612.98H249.829C249.222 604.946 246.28 598.36 241.002 593.223C235.77 588.038 229.465 585.446 222.085 585.446C214.705 585.446 208.376 588.038 203.098 593.223C197.867 598.407 195.018 604.993 194.551 612.98Z" fill="#8AA1BF"/>
<path d="M656.586 431.484C659.472 434.37 664.153 434.37 667.039 431.484C669.926 428.597 669.926 423.916 667.039 421.03C664.153 418.143 659.472 418.143 656.586 421.03C653.699 423.916 653.699 428.597 656.586 431.484Z" fill="#D9B777"/>
<path d="M640.352 511.363C643.236 514.247 647.912 514.247 650.797 511.363C653.681 508.478 653.681 503.802 650.797 500.918C647.912 498.033 643.236 498.033 640.352 500.918C637.468 503.802 637.468 508.478 640.352 511.363Z" fill="#D9B777"/>
<path d="M672.511 447.456C675.398 450.343 680.078 450.343 682.965 447.456C685.852 444.57 685.852 439.889 682.965 437.002C680.078 434.116 675.398 434.116 672.511 437.002C669.625 439.889 669.625 444.57 672.511 447.456Z" fill="#D9B777"/>
<path d="M640.591 447.542C643.472 450.424 648.145 450.424 651.027 447.542C653.908 444.66 653.908 439.988 651.027 437.106C648.145 434.224 643.472 434.224 640.591 437.106C637.709 439.988 637.709 444.66 640.591 447.542Z" fill="#D9B777"/>
<path d="M624.551 463.539C627.435 466.424 632.112 466.424 634.996 463.539C637.88 460.655 637.88 455.979 634.996 453.095C632.112 450.21 627.435 450.21 624.551 453.095C621.667 455.979 621.667 460.655 624.551 463.539Z" fill="#D9B777"/>
<path d="M608.575 479.549C611.457 482.431 616.129 482.431 619.011 479.549C621.893 476.667 621.893 471.995 619.011 469.113C616.129 466.231 611.457 466.231 608.575 469.113C605.693 471.995 605.693 476.667 608.575 479.549Z" fill="#D9B777"/>
<path d="M592.732 463.703C595.611 466.583 600.279 466.583 603.159 463.703C606.038 460.824 606.038 456.156 603.159 453.276C600.279 450.397 595.611 450.397 592.732 453.276C589.853 456.156 589.853 460.824 592.732 463.703Z" fill="#D9B777"/>
<path d="M688.411 463.308C691.293 466.19 695.965 466.19 698.847 463.308C701.729 460.426 701.729 455.754 698.847 452.872C695.965 449.99 691.293 449.99 688.411 452.872C685.529 455.754 685.529 460.426 688.411 463.308Z" fill="#D9B777"/>
<path d="M624.732 431.643C627.611 434.522 632.279 434.522 635.159 431.643C638.038 428.764 638.038 424.096 635.159 421.216C632.279 418.337 627.611 418.337 624.732 421.216C621.853 424.096 621.853 428.764 624.732 431.643Z" fill="#D9B777"/>
<path d="M640.49 479.49C643.367 482.367 648.031 482.367 650.908 479.49C653.785 476.614 653.785 471.949 650.908 469.073C648.031 466.196 643.367 466.196 640.49 469.073C637.614 471.949 637.614 476.614 640.49 479.49Z" fill="#D9B777"/>
<path d="M640.752 415.603C643.629 418.48 648.293 418.48 651.17 415.603C654.047 412.726 654.047 408.062 651.17 405.185C648.293 402.308 643.629 402.308 640.752 405.185C637.875 408.062 637.875 412.726 640.752 415.603Z" fill="#D9B777"/>
<path d="M656.374 495.374C659.248 498.248 663.908 498.248 666.782 495.374C669.657 492.5 669.657 487.839 666.782 484.965C663.908 482.091 659.248 482.091 656.374 484.965C653.499 487.839 653.499 492.5 656.374 495.374Z" fill="#D9B777"/>
<path d="M656.519 463.42C659.391 466.292 664.047 466.292 666.919 463.42C669.79 460.548 669.79 455.892 666.919 453.02C664.047 450.148 659.391 450.148 656.519 453.02C653.647 455.892 653.647 460.548 656.519 463.42Z" fill="#D9B777"/>
<path d="M672.382 479.279C675.254 482.151 679.91 482.151 682.782 479.279C685.654 476.407 685.654 471.751 682.782 468.879C679.91 466.007 675.254 466.007 672.382 468.879C669.51 471.751 669.51 476.407 672.382 479.279Z" fill="#D9B777"/>
<path d="M624.492 495.469C627.361 498.338 632.014 498.338 634.883 495.469C637.752 492.599 637.752 487.947 634.883 485.078C632.014 482.209 627.361 482.209 624.492 485.078C621.623 487.947 621.623 492.599 624.492 495.469Z" fill="#D9B777"/>
<path d="M608.667 447.672C611.539 450.544 616.195 450.544 619.067 447.672C621.939 444.801 621.939 440.144 619.067 437.273C616.195 434.401 611.539 434.401 608.667 437.273C605.796 440.144 605.796 444.801 608.667 447.672Z" fill="#D9B777"/>
<path d="M689.43 430.502C691.807 432.879 695.662 432.879 698.039 430.502C700.416 428.124 700.416 424.27 698.039 421.892C695.662 419.515 691.807 419.515 689.43 421.892C687.052 424.27 687.052 428.124 689.43 430.502Z" fill="#D9B777"/>
<path d="M673.481 414.609C675.858 416.986 679.712 416.986 682.09 414.609C684.467 412.232 684.467 408.377 682.09 406C679.712 403.623 675.858 403.623 673.481 406C671.103 408.377 671.103 412.232 673.481 414.609Z" fill="#D9B777"/>
<path d="M657.622 398.691C659.995 401.064 663.841 401.064 666.213 398.691C668.586 396.319 668.586 392.473 666.213 390.1C663.841 387.728 659.995 387.728 657.622 390.1C655.25 392.473 655.25 396.319 657.622 398.691Z" fill="#D9B777"/>
<path d="M705.302 446.389C707.674 448.761 711.521 448.761 713.893 446.389C716.266 444.017 716.266 440.17 713.893 437.798C711.521 435.426 707.674 435.426 705.302 437.798C702.93 440.17 702.93 444.017 705.302 446.389Z" fill="#D9B777"/>
<path d="M594.035 430.589C596.272 432.826 599.9 432.826 602.137 430.589C604.375 428.351 604.375 424.723 602.137 422.486C599.9 420.248 596.272 420.248 594.035 422.486C591.797 424.723 591.797 428.351 594.035 430.589Z" fill="#D9B777"/>
<path d="M673.933 510.538C676.171 512.776 679.798 512.776 682.036 510.538C684.273 508.301 684.273 504.673 682.036 502.436C679.798 500.198 676.171 500.198 673.933 502.436C671.696 504.673 671.696 508.301 673.933 510.538Z" fill="#D9B777"/>
<path d="M577.99 446.62C580.22 448.85 583.835 448.85 586.065 446.62C588.295 444.39 588.295 440.775 586.065 438.545C583.835 436.315 580.22 436.315 577.99 438.545C575.76 440.775 575.76 444.39 577.99 446.62Z" fill="#D9B777"/>
<path d="M610.076 414.571C612.304 416.798 615.915 416.798 618.143 414.571C620.37 412.343 620.37 408.731 618.143 406.504C615.915 404.276 612.304 404.276 610.076 406.504C607.849 408.731 607.849 412.343 610.076 414.571Z" fill="#D9B777"/>
<path d="M626.125 398.557C628.345 400.777 631.944 400.777 634.164 398.557C636.384 396.337 636.384 392.737 634.164 390.517C631.944 388.297 628.345 388.297 626.125 390.517C623.905 392.737 623.905 396.337 626.125 398.557Z" fill="#D9B777"/>
<path d="M706.023 478.463C708.245 480.685 711.849 480.685 714.071 478.463C716.294 476.24 716.294 472.637 714.071 470.414C711.849 468.192 708.245 468.192 706.023 470.414C703.8 472.637 703.8 476.24 706.023 478.463Z" fill="#D9B777"/>
<path d="M689.997 494.441C692.214 496.659 695.809 496.659 698.027 494.441C700.244 492.224 700.244 488.628 698.027 486.411C695.809 484.193 692.214 484.193 689.997 486.411C687.779 488.628 687.779 492.224 689.997 494.441Z" fill="#D9B777"/>
<path d="M657.939 526.536C660.154 528.751 663.745 528.751 665.96 526.536C668.175 524.321 668.175 520.73 665.96 518.515C663.745 516.3 660.154 516.3 657.939 518.515C655.724 520.73 655.724 524.321 657.939 526.536Z" fill="#D9B777"/>
<path d="M609.469 510.438C611.656 512.626 615.203 512.626 617.391 510.438C619.578 508.25 619.578 504.704 617.391 502.516C615.203 500.329 611.656 500.329 609.469 502.516C607.281 504.704 607.281 508.25 609.469 510.438Z" fill="#D9B777"/>
<path d="M593.562 494.501C595.737 496.677 599.263 496.677 601.438 494.501C603.613 492.326 603.613 488.8 601.438 486.625C599.263 484.45 595.737 484.45 593.562 486.625C591.387 488.8 591.387 492.326 593.562 494.501Z" fill="#D9B777"/>
<path d="M625.378 526.328C627.553 528.503 631.08 528.503 633.255 526.328C635.43 524.153 635.43 520.627 633.255 518.451C631.08 516.276 627.553 516.276 625.378 518.452C623.203 520.627 623.203 524.153 625.378 526.328Z" fill="#D9B777"/>
<path d="M561.795 526.315C563.973 528.493 567.504 528.493 569.681 526.315C571.859 524.138 571.859 520.607 569.681 518.43C567.504 516.252 563.973 516.252 561.795 518.43C559.618 520.607 559.618 524.138 561.795 526.315Z" fill="#D9B777"/>
<path d="M577.691 478.635C579.864 480.808 583.386 480.808 585.559 478.635C587.731 476.463 587.731 472.94 585.559 470.768C583.386 468.595 579.864 468.595 577.691 470.768C575.519 472.94 575.519 476.463 577.691 478.635Z" fill="#D9B777"/>
<path d="M577.7 510.459C579.868 512.627 583.382 512.627 585.55 510.459C587.717 508.292 587.717 504.777 585.55 502.61C583.382 500.442 579.868 500.442 577.7 502.61C575.533 504.777 575.533 508.292 577.7 510.459Z" fill="#D9B777"/>
<path d="M577.739 542.18C579.909 544.35 583.427 544.35 585.597 542.18C587.767 540.01 587.767 536.491 585.597 534.321C583.427 532.151 579.909 532.151 577.739 534.321C575.569 536.491 575.569 540.01 577.739 542.18Z" fill="#D9B777"/>
<path d="M552.263 552.559C554.43 554.727 557.945 554.727 560.112 552.559C562.28 550.391 562.28 546.877 560.112 544.709C557.945 542.542 554.43 542.542 552.263 544.709C550.095 546.877 550.095 550.391 552.263 552.559Z" fill="#D9B777"/>
<path d="M561.849 462.741C564.014 464.906 567.525 464.906 569.69 462.741C571.855 460.576 571.855 457.065 569.69 454.9C567.525 452.735 564.014 452.735 561.849 454.9C559.684 457.065 559.684 460.576 561.849 462.741Z" fill="#D9B777"/>
<path d="M609.459 542.263C611.624 544.428 615.134 544.428 617.299 542.263C619.464 540.098 619.464 536.587 617.299 534.422C615.134 532.257 611.624 532.257 609.459 534.422C607.294 536.587 607.294 540.098 609.459 542.263Z" fill="#D9B777"/>
<path d="M561.784 494.565C563.944 496.725 567.446 496.725 569.606 494.565C571.767 492.405 571.767 488.903 569.606 486.743C567.446 484.583 563.944 484.583 561.784 486.743C559.624 488.903 559.624 492.405 561.784 494.565Z" fill="#D9B777"/>
<path d="M593.598 526.28C595.753 528.435 599.247 528.435 601.402 526.28C603.557 524.125 603.557 520.631 601.402 518.476C599.247 516.321 595.753 516.321 593.598 518.476C591.443 520.631 591.443 524.125 593.598 526.28Z" fill="#D9B777"/>
<path d="M562.843 429.935C564.67 431.763 567.634 431.763 569.462 429.935C571.29 428.107 571.29 425.143 569.462 423.315C567.634 421.487 564.67 421.487 562.843 423.315C561.015 425.143 561.015 428.107 562.843 429.935Z" fill="#D9B777"/>
<path d="M594.891 397.943C596.714 399.766 599.669 399.766 601.492 397.943C603.315 396.12 603.315 393.165 601.492 391.342C599.669 389.519 596.714 389.519 594.891 391.342C593.068 393.165 593.068 396.12 594.891 397.943Z" fill="#D9B777"/>
<path d="M706.575 509.582C708.393 511.4 711.341 511.4 713.159 509.582C714.977 507.764 714.977 504.816 713.159 502.998C711.341 501.18 708.393 501.18 706.575 502.998C704.758 504.816 704.758 507.764 706.575 509.582Z" fill="#D9B777"/>
<path d="M706.429 413.469C708.239 415.279 711.175 415.279 712.985 413.469C714.796 411.658 714.796 408.723 712.985 406.912C711.175 405.102 708.239 405.102 706.429 406.912C704.618 408.723 704.618 411.658 706.429 413.469Z" fill="#D9B777"/>
<path d="M722.326 429.318C724.142 431.133 727.085 431.133 728.9 429.318C730.716 427.502 730.716 424.559 728.9 422.743C727.085 420.928 724.142 420.928 722.326 422.743C720.511 424.559 720.511 427.502 722.326 429.318Z" fill="#D9B777"/>
<path d="M674.713 381.706C676.526 383.519 679.466 383.519 681.279 381.706C683.092 379.893 683.092 376.954 681.279 375.141C679.466 373.328 676.526 373.328 674.713 375.141C672.9 376.954 672.9 379.893 674.713 381.706Z" fill="#D9B777"/>
<path d="M674.568 541.599C676.386 543.417 679.333 543.417 681.151 541.599C682.969 539.781 682.969 536.833 681.151 535.015C679.333 533.197 676.386 533.197 674.568 535.015C672.75 536.833 672.75 539.781 674.568 541.599Z" fill="#D9B777"/>
<path d="M690.59 525.649C692.396 527.454 695.323 527.454 697.128 525.649C698.934 523.843 698.934 520.916 697.128 519.11C695.323 517.305 692.396 517.305 690.59 519.11C688.785 520.916 688.785 523.843 690.59 525.649Z" fill="#D9B777"/>
<path d="M722.653 493.593C724.456 495.396 727.38 495.396 729.183 493.593C730.986 491.79 730.986 488.866 729.183 487.063C727.38 485.26 724.456 485.26 722.653 487.063C720.85 488.866 720.85 491.79 722.653 493.593Z" fill="#D9B777"/>
<path d="M642.821 381.898C644.624 383.701 647.548 383.701 649.351 381.898C651.154 380.095 651.154 377.172 649.351 375.369C647.548 373.566 644.624 373.566 642.821 375.369C641.018 377.172 641.018 380.095 642.821 381.898Z" fill="#D9B777"/>
<path d="M722.649 461.754C724.454 463.56 727.382 463.56 729.187 461.754C730.993 459.949 730.993 457.021 729.187 455.216C727.382 453.41 724.454 453.41 722.649 455.216C720.843 457.021 720.843 459.949 722.649 461.754Z" fill="#D9B777"/>
<path d="M610.924 381.823C612.724 383.624 615.643 383.624 617.444 381.823C619.244 380.023 619.244 377.104 617.444 375.303C615.643 373.503 612.724 373.503 610.924 375.303C609.123 377.104 609.123 380.023 610.924 381.823Z" fill="#D9B777"/>
<path d="M642.553 541.934C644.351 543.732 647.266 543.732 649.064 541.934C650.862 540.136 650.862 537.221 649.064 535.423C647.266 533.625 644.351 533.625 642.553 535.423C640.755 537.221 640.755 540.136 642.553 541.934Z" fill="#D9B777"/>
<path d="M690.558 397.588C692.353 399.384 695.264 399.384 697.06 397.588C698.855 395.793 698.855 392.881 697.06 391.086C695.264 389.29 692.353 389.29 690.558 391.086C688.762 392.881 688.762 395.793 690.558 397.588Z" fill="#D9B777"/>
<path d="M578.898 413.866C580.691 415.659 583.598 415.659 585.391 413.866C587.184 412.073 587.184 409.166 585.391 407.373C583.598 405.58 580.691 405.58 578.898 407.373C577.105 409.166 577.105 412.073 578.898 413.866Z" fill="#D9B777"/>
</svg>
