<svg width="1024" height="1024" viewBox="0 0 1024 1024" fill="none" xmlns="http://www.w3.org/2000/svg">
<path d="M477.105 441.535H496.302V522.176C496.302 525.493 496.84 527.781 497.914 529.042C498.988 530.303 500.6 530.934 502.748 530.934C505.831 530.934 508.844 530.257 511.786 528.902L514.378 543.545C511.856 544.713 508.89 545.647 505.481 546.348C502.071 547.048 498.918 547.399 496.022 547.399C490.044 547.399 485.396 545.787 482.08 542.564C478.764 539.341 477.105 534.787 477.105 528.902V441.535Z" fill="#00112B"/>
<path d="M429.1 547.677C421.253 547.677 414.271 545.902 408.152 542.352C402.033 538.802 397.386 534.131 394.21 528.34C391.033 522.501 389.445 516.102 389.445 509.143C389.445 501.996 391.033 495.457 394.21 489.525C397.386 483.547 402.033 478.759 408.152 475.163C414.271 471.566 421.3 469.768 429.24 469.768C435.219 469.768 440.684 470.819 445.635 472.921C450.633 475.023 454.766 477.872 458.036 481.468C461.352 485.018 463.898 489.105 465.673 493.729C467.494 498.353 468.405 503.234 468.405 508.372C468.405 511.034 468.265 513.183 467.985 514.818H409.833C410.3 520.516 412.449 525.094 416.279 528.55C420.109 531.96 424.616 533.664 429.801 533.664C433.678 533.664 437.298 532.73 440.661 530.862C444.07 528.947 446.382 526.471 447.597 523.435L464.061 528.059C461.259 533.945 456.751 538.686 450.539 542.282C444.374 545.879 437.228 547.677 429.1 547.677ZM409.413 502.627H448.718C448.157 496.975 446.032 492.421 442.342 488.965C438.699 485.462 434.238 483.71 428.96 483.71C423.776 483.71 419.338 485.462 415.648 488.965C411.959 492.468 409.88 497.022 409.413 502.627Z" fill="#00112B"/>
<path d="M299.977 508.654C299.977 501.508 301.401 494.969 304.25 489.037C307.1 483.105 311.093 478.411 316.231 474.955C321.416 471.498 327.207 469.77 333.606 469.77C338.978 469.77 343.882 471.101 348.319 473.764C352.803 476.379 356.353 479.882 358.969 484.273V441.535H378.236V524.769C378.236 526.824 378.563 528.295 379.217 529.182C379.871 530.023 381.015 530.514 382.65 530.654V546.278C379.333 546.931 376.601 547.258 374.452 547.258C371.043 547.258 368.194 546.418 365.905 544.736C363.663 543.008 362.402 540.743 362.122 537.94L361.841 533.246C359.132 537.87 355.419 541.443 350.701 543.966C345.984 546.441 340.986 547.679 335.708 547.679C328.889 547.679 322.747 545.951 317.282 542.494C311.817 539.038 307.567 534.344 304.531 528.412C301.495 522.433 299.977 515.847 299.977 508.654ZM358.969 518.743V500.807C357.381 496.65 354.718 493.171 350.982 490.368C347.292 487.566 343.508 486.165 339.632 486.165C333.98 486.165 329.286 488.453 325.549 493.031C321.813 497.561 319.944 502.933 319.944 509.145C319.944 515.404 321.906 520.682 325.829 524.979C329.8 529.229 334.774 531.354 340.753 531.354C344.489 531.354 348.132 530.163 351.682 527.781C355.279 525.352 357.708 522.34 358.969 518.743Z" fill="#00112B"/>
<path d="M219.895 524.066C219.895 516.78 222.884 510.894 228.862 506.41C234.841 501.88 242.618 499.614 252.193 499.614C259.386 499.614 265.411 500.619 270.269 502.627V498.634C270.269 493.823 268.844 490.133 265.995 487.564C263.193 484.995 259.012 483.71 253.454 483.71C249.437 483.71 245.607 484.411 241.964 485.812C238.321 487.167 234.327 489.292 229.983 492.188L223.748 479.577C233.79 473.038 244.37 469.768 255.486 469.768C266.229 469.768 274.566 472.454 280.498 477.825C286.477 483.197 289.466 490.857 289.466 500.805V524.767C289.466 526.822 289.816 528.293 290.517 529.18C291.218 530.021 292.409 530.512 294.09 530.652V546.276C290.867 546.929 288.135 547.256 285.893 547.256C282.203 547.256 279.33 546.462 277.275 544.874C275.267 543.24 274.029 541.068 273.562 538.359L273.142 534.505C269.919 538.662 265.855 541.908 260.951 544.244C256.093 546.532 251.119 547.677 246.028 547.677C238.508 547.677 232.272 545.435 227.321 540.951C222.37 536.467 219.895 530.839 219.895 524.066ZM266.696 527.919C269.078 525.537 270.269 523.342 270.269 521.334V513.697C265.365 511.688 260.344 510.684 255.206 510.684C250.161 510.684 246.051 511.782 242.875 513.977C239.699 516.126 238.111 518.951 238.111 522.455C238.111 525.491 239.325 528.13 241.754 530.372C244.183 532.567 247.429 533.664 251.492 533.664C254.342 533.664 257.121 533.151 259.83 532.123C262.586 531.049 264.874 529.648 266.696 527.919Z" fill="#00112B"/>
<path d="M156.197 533.104V576.822H137V471.099H153.815V483.991C156.664 479.507 160.307 476.027 164.745 473.551C169.182 471.029 174.18 469.768 179.738 469.768C186.324 469.768 192.326 471.52 197.744 475.023C203.162 478.526 207.366 483.243 210.355 489.175C213.391 495.06 214.909 501.506 214.909 508.512C214.909 515.752 213.508 522.361 210.705 528.34C207.903 534.318 203.979 539.036 198.935 542.492C193.89 545.949 188.262 547.677 182.05 547.677C176.305 547.677 171.19 546.392 166.706 543.823C162.269 541.254 158.766 537.681 156.197 533.104ZM195.221 508.512C195.221 502.207 193.236 496.905 189.266 492.608C185.296 488.311 180.345 486.163 174.413 486.163C170.676 486.163 167.01 487.377 163.413 489.806C159.864 492.188 157.458 495.177 156.197 498.774V516.429C157.925 520.726 160.588 524.299 164.184 527.149C167.781 529.951 171.587 531.352 175.604 531.352C181.256 531.352 185.927 529.087 189.617 524.556C193.353 520.026 195.221 514.678 195.221 508.512Z" fill="#00112B"/>
<path d="M850.077 655.295C843.024 655.295 836.602 653.52 830.81 649.971C825.065 646.421 820.604 641.68 817.428 635.748C814.252 629.769 812.664 623.277 812.664 616.271C812.664 609.358 814.252 602.982 817.428 597.144C820.604 591.259 825.065 586.588 830.81 583.132C836.555 579.628 842.931 577.877 849.937 577.877C857.037 577.877 863.436 579.652 869.134 583.202C874.879 586.705 879.293 591.376 882.376 597.214C885.458 603.006 887 609.311 887 616.131C887 618.279 886.953 619.587 886.86 620.054H822.823C823.43 628.041 826.396 634.674 831.721 639.952C837.046 645.23 843.328 647.869 850.568 647.869C855.472 647.869 860.073 646.631 864.37 644.155C868.667 641.633 871.703 638.364 873.478 634.347L881.955 636.659C879.62 642.17 875.51 646.654 869.624 650.111C863.786 653.567 857.27 655.295 850.077 655.295ZM822.543 612.978H877.822C877.214 604.944 874.272 598.358 868.994 593.22C863.763 588.036 857.457 585.444 850.077 585.444C842.697 585.444 836.368 588.036 831.09 593.22C825.859 598.405 823.01 604.991 822.543 612.978Z" fill="#6B84A4"/>
<path d="M775.041 655.295C767.942 655.295 761.496 653.52 755.704 649.971C749.959 646.421 745.475 641.68 742.252 635.748C739.076 629.816 737.488 623.324 737.488 616.271C737.488 609.218 739.053 602.772 742.182 596.934C745.312 591.095 749.749 586.471 755.494 583.062C761.239 579.605 767.708 577.877 774.901 577.877C781.861 577.877 788.003 579.465 793.328 582.641C798.652 585.817 802.669 590.161 805.378 595.673L795.85 598.685C793.795 594.855 790.852 591.866 787.022 589.717C783.239 587.522 779.058 586.424 774.481 586.424C766.821 586.424 760.375 589.274 755.144 594.972C749.959 600.67 747.367 607.77 747.367 616.271C747.367 624.678 750.053 631.871 755.424 637.85C760.796 643.782 767.195 646.748 774.621 646.748C779.385 646.748 783.916 645.487 788.213 642.964C792.557 640.395 795.313 637.383 796.48 633.926L806.079 636.799C803.977 642.217 800.054 646.654 794.309 650.111C788.61 653.567 782.188 655.295 775.041 655.295Z" fill="#6B84A4"/>
<path d="M724.721 653.894H714.912V612.137C714.912 603.356 713.604 596.934 710.988 592.87C708.419 588.807 704.379 586.775 698.868 586.775C693.029 586.775 687.471 588.83 682.193 592.94C676.915 597.004 673.389 602.072 671.614 608.144V653.894H661.875V579.138H670.773V596.093C673.809 590.581 678.176 586.168 683.874 582.851C689.62 579.535 695.808 577.877 702.441 577.877C706.504 577.877 709.984 578.624 712.88 580.119C715.823 581.567 718.135 583.739 719.816 586.635C721.544 589.531 722.782 592.894 723.53 596.724C724.324 600.554 724.721 605.014 724.721 610.105V653.894Z" fill="#6B84A4"/>
<path d="M612.757 655.295C605.704 655.295 599.282 653.52 593.49 649.971C587.745 646.421 583.284 641.68 580.108 635.748C576.932 629.769 575.344 623.277 575.344 616.271C575.344 609.358 576.932 602.982 580.108 597.144C583.284 591.259 587.745 586.588 593.49 583.132C599.235 579.628 605.611 577.877 612.617 577.877C619.716 577.877 626.115 579.652 631.814 583.202C637.559 586.705 641.973 591.376 645.055 597.214C648.138 603.006 649.679 609.311 649.679 616.131C649.679 618.279 649.633 619.587 649.539 620.054H585.503C586.11 628.041 589.076 634.674 594.401 639.952C599.725 645.23 606.008 647.869 613.247 647.869C618.152 647.869 622.752 646.631 627.049 644.155C631.347 641.633 634.383 638.364 636.158 634.347L644.635 636.659C642.3 642.17 638.189 646.654 632.304 650.111C626.466 653.567 619.95 655.295 612.757 655.295ZM585.222 612.978H640.501C639.894 604.944 636.952 598.358 631.674 593.22C626.442 588.036 620.137 585.444 612.757 585.444C605.377 585.444 599.048 588.036 593.77 593.22C588.539 598.405 585.69 604.991 585.222 612.978Z" fill="#6B84A4"/>
<path d="M552.156 653.892V579.136H561.895V653.892H552.156Z" fill="#6B84A4"/>
<path d="M542 587.759C535.414 587.993 529.669 589.838 524.764 593.294C519.86 596.704 516.427 601.398 514.465 607.377V653.898H504.727V579.142H513.905V597.078C516.474 591.846 519.883 587.619 524.134 584.396C528.384 581.127 532.915 579.282 537.726 578.861C539.594 578.721 541.019 578.721 542 578.861V587.759Z" fill="#6B84A4"/>
<path d="M455.608 655.295C448.555 655.295 442.133 653.52 436.341 649.971C430.596 646.421 426.136 641.68 422.96 635.748C419.783 629.769 418.195 623.277 418.195 616.271C418.195 609.358 419.783 602.982 422.96 597.144C426.136 591.259 430.596 586.588 436.341 583.132C442.086 579.628 448.462 577.877 455.468 577.877C462.568 577.877 468.967 579.652 474.665 583.202C480.41 586.705 484.824 591.376 487.907 597.214C490.99 603.006 492.531 609.311 492.531 616.131C492.531 618.279 492.484 619.587 492.391 620.054H428.354C428.961 628.041 431.927 634.674 437.252 639.952C442.577 645.23 448.859 647.869 456.099 647.869C461.003 647.869 465.604 646.631 469.901 644.155C474.198 641.633 477.234 638.364 479.009 634.347L487.487 636.659C485.151 642.17 481.041 646.654 475.156 650.111C469.317 653.567 462.801 655.295 455.608 655.295ZM428.074 612.978H483.353C482.746 604.944 479.803 598.358 474.525 593.22C469.294 588.036 462.988 585.444 455.608 585.444C448.229 585.444 441.9 588.036 436.622 593.22C431.39 598.405 428.541 604.991 428.074 612.978Z" fill="#6B84A4"/>
<path d="M347.426 638.41V684.441H337.688V579.138H346.445V593.641C349.528 588.877 353.545 585.07 358.496 582.221C363.447 579.325 368.702 577.877 374.26 577.877C380.892 577.877 386.941 579.722 392.406 583.412C397.917 587.102 402.168 591.913 405.157 597.845C408.193 603.73 409.711 609.989 409.711 616.621C409.711 623.627 408.287 630.073 405.437 635.958C402.635 641.843 398.618 646.538 393.387 650.041C388.202 653.544 382.34 655.295 375.801 655.295C369.823 655.295 364.358 653.754 359.407 650.671C354.502 647.542 350.509 643.455 347.426 638.41ZM399.762 616.621C399.762 608.494 397.053 601.441 391.635 595.462C386.217 589.437 379.655 586.424 371.948 586.424C368.678 586.424 365.245 587.265 361.649 588.947C358.052 590.581 354.899 592.87 352.19 595.813C349.481 598.755 347.893 601.815 347.426 604.991V627.901C349.668 633.366 353.148 637.873 357.865 641.423C362.583 644.973 367.651 646.748 373.069 646.748C378.253 646.748 382.924 645.3 387.081 642.404C391.238 639.461 394.391 635.725 396.54 631.194C398.688 626.617 399.762 621.759 399.762 616.621Z" fill="#6B84A4"/>
<path d="M270.496 579.136L292.496 608.422L293.617 610.593L294.738 608.422L316.597 579.136H327.597L299.222 616.759L327.597 653.892H316.597L294.738 624.746L293.617 622.784L292.496 624.746L270.636 653.892H259.637L287.872 616.759L259.637 579.136H270.496Z" fill="#6B84A4"/>
<path d="M222.085 655.295C215.032 655.295 208.61 653.52 202.818 649.971C197.073 646.421 192.612 641.68 189.436 635.748C186.26 629.769 184.672 623.277 184.672 616.271C184.672 609.358 186.26 602.982 189.436 597.144C192.612 591.259 197.073 586.588 202.818 583.132C208.563 579.628 214.939 577.877 221.945 577.877C229.044 577.877 235.443 579.652 241.142 583.202C246.887 586.705 251.301 591.376 254.384 597.214C257.466 603.006 259.008 609.311 259.008 616.131C259.008 618.279 258.961 619.587 258.867 620.054H194.831C195.438 628.041 198.404 634.674 203.729 639.952C209.053 645.23 215.336 647.869 222.575 647.869C227.48 647.869 232.08 646.631 236.378 644.155C240.675 641.633 243.711 638.364 245.486 634.347L253.963 636.659C251.628 642.17 247.517 646.654 241.632 650.111C235.794 653.567 229.278 655.295 222.085 655.295ZM194.551 612.978H249.829C249.222 604.944 246.28 598.358 241.002 593.22C235.77 588.036 229.465 585.444 222.085 585.444C214.705 585.444 208.376 588.036 203.098 593.22C197.867 598.405 195.018 604.991 194.551 612.978Z" fill="#6B84A4"/>
<path d="M656.586 431.483C659.472 434.369 664.153 434.369 667.039 431.483C669.926 428.596 669.926 423.915 667.039 421.029C664.153 418.142 659.472 418.142 656.586 421.029C653.699 423.915 653.699 428.596 656.586 431.483Z" fill="#B37900"/>
<path d="M640.352 511.361C643.236 514.245 647.912 514.245 650.797 511.361C653.681 508.477 653.681 503.801 650.797 500.916C647.912 498.032 643.236 498.032 640.352 500.916C637.468 503.801 637.468 508.477 640.352 511.361Z" fill="#B37900"/>
<path d="M672.515 447.455C675.402 450.342 680.082 450.342 682.969 447.455C685.856 444.568 685.856 439.888 682.969 437.001C680.082 434.115 675.402 434.115 672.515 437.001C669.628 439.888 669.628 444.568 672.515 447.455Z" fill="#B37900"/>
<path d="M640.591 447.541C643.472 450.423 648.145 450.423 651.027 447.541C653.908 444.659 653.908 439.987 651.027 437.105C648.145 434.223 643.472 434.223 640.591 437.105C637.709 439.987 637.709 444.659 640.591 447.541Z" fill="#B37900"/>
<path d="M624.555 463.538C627.439 466.423 632.116 466.423 635 463.538C637.884 460.654 637.884 455.978 635 453.094C632.116 450.209 627.439 450.209 624.555 453.094C621.671 455.978 621.671 460.654 624.555 463.538Z" fill="#B37900"/>
<path d="M608.575 479.548C611.457 482.43 616.129 482.43 619.011 479.548C621.893 476.666 621.893 471.994 619.011 469.112C616.129 466.23 611.457 466.23 608.575 469.112C605.693 471.994 605.693 476.666 608.575 479.548Z" fill="#B37900"/>
<path d="M592.74 463.702C595.619 466.581 600.287 466.581 603.167 463.702C606.046 460.823 606.046 456.155 603.167 453.275C600.287 450.396 595.619 450.396 592.74 453.275C589.86 456.155 589.86 460.823 592.74 463.702Z" fill="#B37900"/>
<path d="M688.411 463.307C691.293 466.189 695.965 466.189 698.847 463.307C701.729 460.425 701.729 455.753 698.847 452.871C695.965 449.989 691.293 449.989 688.411 452.871C685.529 455.753 685.529 460.425 688.411 463.307Z" fill="#B37900"/>
<path d="M624.732 431.643C627.611 434.522 632.279 434.522 635.159 431.643C638.038 428.763 638.038 424.095 635.159 421.216C632.279 418.337 627.611 418.337 624.732 421.216C621.853 424.095 621.853 428.763 624.732 431.643Z" fill="#B37900"/>
<path d="M640.49 479.489C643.367 482.366 648.031 482.366 650.908 479.489C653.785 476.613 653.785 471.948 650.908 469.072C648.031 466.195 643.367 466.195 640.49 469.072C637.614 471.948 637.614 476.613 640.49 479.489Z" fill="#B37900"/>
<path d="M640.752 415.602C643.629 418.478 648.293 418.478 651.17 415.602C654.047 412.725 654.047 408.061 651.17 405.184C648.293 402.307 643.629 402.307 640.752 405.184C637.875 408.061 637.875 412.725 640.752 415.602Z" fill="#B37900"/>
<path d="M656.374 495.373C659.248 498.247 663.908 498.247 666.782 495.373C669.657 492.498 669.657 487.838 666.782 484.964C663.908 482.09 659.248 482.09 656.374 484.964C653.499 487.838 653.499 492.499 656.374 495.373Z" fill="#B37900"/>
<path d="M656.519 463.419C659.391 466.291 664.047 466.291 666.919 463.419C669.79 460.547 669.79 455.891 666.919 453.019C664.047 450.147 659.391 450.147 656.519 453.019C653.647 455.891 653.647 460.547 656.519 463.419Z" fill="#B37900"/>
<path d="M672.382 479.278C675.254 482.149 679.91 482.149 682.782 479.278C685.654 476.406 685.654 471.75 682.782 468.878C679.91 466.006 675.254 466.006 672.382 468.878C669.51 471.75 669.51 476.406 672.382 479.278Z" fill="#B37900"/>
<path d="M624.492 495.468C627.361 498.337 632.014 498.337 634.883 495.468C637.752 492.598 637.752 487.946 634.883 485.077C632.014 482.208 627.361 482.208 624.492 485.077C621.623 487.946 621.623 492.598 624.492 495.468Z" fill="#B37900"/>
<path d="M608.667 447.671C611.539 450.543 616.195 450.543 619.067 447.671C621.939 444.799 621.939 440.143 619.067 437.272C616.195 434.4 611.539 434.4 608.667 437.272C605.796 440.143 605.796 444.799 608.667 447.671Z" fill="#B37900"/>
<path d="M689.43 430.501C691.807 432.878 695.662 432.878 698.039 430.501C700.416 428.124 700.416 424.269 698.039 421.892C695.662 419.515 691.807 419.515 689.43 421.892C687.052 424.269 687.052 428.124 689.43 430.501Z" fill="#B37900"/>
<path d="M673.481 414.608C675.858 416.986 679.712 416.986 682.09 414.608C684.467 412.231 684.467 408.377 682.09 405.999C679.712 403.622 675.858 403.622 673.481 405.999C671.103 408.377 671.103 412.231 673.481 414.608Z" fill="#B37900"/>
<path d="M657.622 398.69C659.995 401.063 663.841 401.063 666.213 398.69C668.586 396.318 668.586 392.472 666.213 390.099C663.841 387.727 659.995 387.727 657.622 390.099C655.25 392.472 655.25 396.318 657.622 398.69Z" fill="#B37900"/>
<path d="M705.306 446.388C707.678 448.761 711.525 448.761 713.897 446.388C716.269 444.016 716.269 440.17 713.897 437.797C711.525 435.425 707.678 435.425 705.306 437.797C702.934 440.17 702.934 444.016 705.306 446.388Z" fill="#B37900"/>
<path d="M594.035 430.588C596.272 432.825 599.9 432.825 602.137 430.588C604.375 428.35 604.375 424.722 602.137 422.485C599.9 420.247 596.272 420.247 594.035 422.485C591.797 424.722 591.797 428.35 594.035 430.588Z" fill="#B37900"/>
<path d="M673.933 510.537C676.171 512.774 679.798 512.774 682.036 510.537C684.273 508.299 684.273 504.672 682.036 502.434C679.798 500.197 676.171 500.197 673.933 502.434C671.696 504.672 671.696 508.299 673.933 510.537Z" fill="#B37900"/>
<path d="M577.99 446.62C580.22 448.85 583.835 448.85 586.065 446.62C588.295 444.39 588.295 440.774 586.065 438.544C583.835 436.314 580.22 436.314 577.99 438.544C575.76 440.774 575.76 444.39 577.99 446.62Z" fill="#B37900"/>
<path d="M610.08 414.57C612.308 416.797 615.919 416.797 618.147 414.57C620.374 412.342 620.374 408.731 618.147 406.503C615.919 404.276 612.308 404.276 610.08 406.503C607.853 408.731 607.853 412.342 610.08 414.57Z" fill="#B37900"/>
<path d="M626.129 398.556C628.349 400.776 631.948 400.776 634.168 398.556C636.388 396.336 636.388 392.737 634.168 390.517C631.948 388.297 628.349 388.297 626.129 390.517C623.909 392.737 623.909 396.336 626.129 398.556Z" fill="#B37900"/>
<path d="M706.023 478.462C708.245 480.684 711.849 480.684 714.071 478.462C716.294 476.239 716.294 472.636 714.071 470.413C711.849 468.191 708.245 468.191 706.023 470.413C703.8 472.636 703.8 476.239 706.023 478.462Z" fill="#B37900"/>
<path d="M689.997 494.44C692.214 496.657 695.809 496.657 698.027 494.44C700.244 492.222 700.244 488.627 698.027 486.409C695.809 484.192 692.214 484.192 689.997 486.409C687.779 488.627 687.779 492.222 689.997 494.44Z" fill="#B37900"/>
<path d="M657.939 526.534C660.154 528.749 663.745 528.749 665.96 526.534C668.175 524.319 668.175 520.728 665.96 518.513C663.745 516.298 660.154 516.298 657.939 518.513C655.724 520.728 655.724 524.319 657.939 526.534Z" fill="#B37900"/>
<path d="M609.469 510.436C611.656 512.624 615.203 512.624 617.391 510.436C619.578 508.249 619.578 504.702 617.391 502.515C615.203 500.327 611.656 500.327 609.469 502.515C607.281 504.702 607.281 508.249 609.469 510.436Z" fill="#B37900"/>
<path d="M593.562 494.5C595.737 496.675 599.263 496.675 601.438 494.5C603.613 492.325 603.613 488.799 601.438 486.624C599.263 484.449 595.737 484.449 593.562 486.624C591.387 488.799 591.387 492.325 593.562 494.5Z" fill="#B37900"/>
<path d="M625.378 526.327C627.553 528.502 631.08 528.502 633.255 526.327C635.43 524.152 635.43 520.625 633.255 518.45C631.08 516.275 627.553 516.275 625.378 518.45C623.203 520.625 623.203 524.152 625.378 526.327Z" fill="#B37900"/>
<path d="M561.799 526.314C563.977 528.491 567.507 528.491 569.685 526.314C571.863 524.136 571.863 520.606 569.685 518.428C567.507 516.251 563.977 516.251 561.799 518.428C559.622 520.606 559.622 524.136 561.799 526.314Z" fill="#B37900"/>
<path d="M577.691 478.634C579.864 480.807 583.386 480.807 585.559 478.634C587.731 476.462 587.731 472.939 585.559 470.767C583.386 468.594 579.864 468.594 577.691 470.767C575.519 472.939 575.519 476.462 577.691 478.634Z" fill="#B37900"/>
<path d="M577.7 510.458C579.868 512.626 583.382 512.626 585.55 510.458C587.717 508.291 587.717 504.776 585.55 502.609C583.382 500.441 579.868 500.441 577.7 502.609C575.533 504.776 575.533 508.291 577.7 510.458Z" fill="#B37900"/>
<path d="M577.739 542.178C579.909 544.348 583.427 544.348 585.597 542.178C587.767 540.008 587.767 536.49 585.597 534.32C583.427 532.15 579.909 532.15 577.739 534.32C575.569 536.49 575.569 540.008 577.739 542.178Z" fill="#B37900"/>
<path d="M552.267 552.557C554.434 554.725 557.949 554.725 560.116 552.557C562.284 550.39 562.284 546.876 560.116 544.708C557.949 542.54 554.434 542.54 552.267 544.708C550.099 546.876 550.099 550.39 552.267 552.557Z" fill="#B37900"/>
<path d="M561.853 462.74C564.018 464.905 567.529 464.905 569.694 462.74C571.859 460.575 571.859 457.064 569.694 454.899C567.529 452.734 564.018 452.734 561.853 454.899C559.688 457.064 559.688 460.575 561.853 462.74Z" fill="#B37900"/>
<path d="M609.459 542.261C611.624 544.426 615.134 544.426 617.299 542.261C619.464 540.096 619.464 536.586 617.299 534.421C615.134 532.256 611.624 532.256 609.459 534.421C607.294 536.586 607.294 540.096 609.459 542.261Z" fill="#B37900"/>
<path d="M561.784 494.564C563.944 496.724 567.446 496.724 569.606 494.564C571.767 492.403 571.767 488.901 569.606 486.741C567.446 484.581 563.944 484.581 561.784 486.741C559.624 488.901 559.624 492.403 561.784 494.564Z" fill="#B37900"/>
<path d="M593.598 526.279C595.753 528.434 599.247 528.434 601.402 526.279C603.557 524.124 603.557 520.629 601.402 518.474C599.247 516.319 595.753 516.319 593.598 518.474C591.443 520.629 591.443 524.124 593.598 526.279Z" fill="#B37900"/>
<path d="M562.846 429.934C564.674 431.762 567.638 431.762 569.466 429.934C571.294 428.106 571.294 425.143 569.466 423.315C567.638 421.487 564.674 421.487 562.846 423.315C561.018 425.143 561.018 428.106 562.846 429.934Z" fill="#B37900"/>
<path d="M594.891 397.943C596.714 399.766 599.669 399.766 601.492 397.943C603.315 396.12 603.315 393.164 601.492 391.341C599.669 389.518 596.714 389.518 594.891 391.341C593.068 393.164 593.068 396.12 594.891 397.943Z" fill="#B37900"/>
<path d="M706.575 509.58C708.393 511.398 711.341 511.398 713.159 509.58C714.977 507.762 714.977 504.815 713.159 502.997C711.341 501.179 708.393 501.179 706.575 502.997C704.758 504.815 704.758 507.762 706.575 509.58Z" fill="#B37900"/>
<path d="M706.429 413.468C708.239 415.278 711.175 415.278 712.985 413.468C714.796 411.657 714.796 408.722 712.985 406.911C711.175 405.101 708.239 405.101 706.429 406.911C704.618 408.722 704.618 411.657 706.429 413.468Z" fill="#B37900"/>
<path d="M722.33 429.317C724.145 431.133 727.089 431.133 728.904 429.317C730.72 427.502 730.72 424.558 728.904 422.743C727.089 420.927 724.145 420.927 722.33 422.743C720.515 424.558 720.515 427.502 722.33 429.317Z" fill="#B37900"/>
<path d="M674.713 381.706C676.526 383.519 679.466 383.519 681.279 381.706C683.092 379.893 683.092 376.954 681.279 375.141C679.466 373.328 676.526 373.328 674.713 375.141C672.9 376.954 672.9 379.893 674.713 381.706Z" fill="#B37900"/>
<path d="M674.568 541.598C676.386 543.416 679.333 543.416 681.151 541.598C682.969 539.78 682.969 536.832 681.151 535.014C679.333 533.196 676.386 533.196 674.568 535.014C672.75 536.832 672.75 539.78 674.568 541.598Z" fill="#B37900"/>
<path d="M690.594 525.647C692.4 527.453 695.327 527.453 697.132 525.647C698.938 523.842 698.938 520.914 697.132 519.109C695.327 517.303 692.4 517.303 690.594 519.109C688.789 520.914 688.789 523.842 690.594 525.647Z" fill="#B37900"/>
<path d="M722.653 493.591C724.456 495.394 727.38 495.394 729.183 493.591C730.986 491.788 730.986 488.865 729.183 487.062C727.38 485.259 724.456 485.259 722.653 487.062C720.85 488.865 720.85 491.788 722.653 493.591Z" fill="#B37900"/>
<path d="M642.821 381.897C644.624 383.7 647.548 383.7 649.351 381.897C651.154 380.094 651.154 377.171 649.351 375.368C647.548 373.565 644.624 373.565 642.821 375.368C641.018 377.171 641.018 380.094 642.821 381.897Z" fill="#B37900"/>
<path d="M722.649 461.753C724.454 463.559 727.382 463.559 729.187 461.753C730.993 459.948 730.993 457.02 729.187 455.215C727.382 453.409 724.454 453.409 722.649 455.215C720.843 457.02 720.843 459.948 722.649 461.753Z" fill="#B37900"/>
<path d="M610.924 381.823C612.724 383.623 615.643 383.623 617.444 381.823C619.244 380.022 619.244 377.103 617.444 375.303C615.643 373.502 612.724 373.502 610.924 375.303C609.123 377.103 609.123 380.022 610.924 381.823Z" fill="#B37900"/>
<path d="M642.553 541.933C644.351 543.731 647.266 543.731 649.064 541.933C650.862 540.135 650.862 537.22 649.064 535.422C647.266 533.624 644.351 533.624 642.553 535.422C640.755 537.22 640.755 540.135 642.553 541.933Z" fill="#B37900"/>
<path d="M690.561 397.587C692.357 399.383 695.268 399.383 697.064 397.587C698.859 395.792 698.859 392.88 697.064 391.085C695.268 389.29 692.357 389.29 690.561 391.085C688.766 392.88 688.766 395.792 690.561 397.587Z" fill="#B37900"/>
<path d="M578.898 413.865C580.691 415.658 583.598 415.658 585.391 413.865C587.184 412.072 587.184 409.165 585.391 407.372C583.598 405.579 580.691 405.579 578.898 407.372C577.105 409.165 577.105 412.072 578.898 413.865Z" fill="#B37900"/>
</svg>
